<svg aria-roledescription="flowchart-v2" role="graphics-document document" viewBox="-8 -8 769.115234375 750" height="750" xmlns:xlink="http://www.w3.org/1999/xlink" xmlns="http://www.w3.org/2000/svg" width="769.115234375" id="mermaid-1682431079810" style="background-color: white;"><style>#mermaid-1682431079810{font-family:"trebuchet ms",verdana,arial,sans-serif;font-size:16px;fill:#333;}#mermaid-1682431079810 .error-icon{fill:#552222;}#mermaid-1682431079810 .error-text{fill:#552222;stroke:#552222;}#mermaid-1682431079810 .edge-thickness-normal{stroke-width:2px;}#mermaid-1682431079810 .edge-thickness-thick{stroke-width:3.5px;}#mermaid-1682431079810 .edge-pattern-solid{stroke-dasharray:0;}#mermaid-1682431079810 .edge-pattern-dashed{stroke-dasharray:3;}#mermaid-1682431079810 .edge-pattern-dotted{stroke-dasharray:2;}#mermaid-1682431079810 .marker{fill:#333333;stroke:#333333;}#mermaid-1682431079810 .marker.cross{stroke:#333333;}#mermaid-1682431079810 svg{font-family:"trebuchet ms",verdana,arial,sans-serif;font-size:16px;}#mermaid-1682431079810 .label{font-family:"trebuchet ms",verdana,arial,sans-serif;color:#333;}#mermaid-1682431079810 .cluster-label text{fill:#333;}#mermaid-1682431079810 .cluster-label span{color:#333;}#mermaid-1682431079810 .label text,#mermaid-1682431079810 span{fill:#333;color:#333;}#mermaid-1682431079810 .node rect,#mermaid-1682431079810 .node circle,#mermaid-1682431079810 .node ellipse,#mermaid-1682431079810 .node polygon,#mermaid-1682431079810 .node path{fill:#ECECFF;stroke:#9370DB;stroke-width:1px;}#mermaid-1682431079810 .node .label{text-align:center;}#mermaid-1682431079810 .node.clickable{cursor:pointer;}#mermaid-1682431079810 .arrowheadPath{fill:#333333;}#mermaid-1682431079810 .edgePath .path{stroke:#333333;stroke-width:2.0px;}#mermaid-1682431079810 .flowchart-link{stroke:#333333;fill:none;}#mermaid-1682431079810 .edgeLabel{background-color:#e8e8e8;text-align:center;}#mermaid-1682431079810 .edgeLabel rect{opacity:0.5;background-color:#e8e8e8;fill:#e8e8e8;}#mermaid-1682431079810 .cluster rect{fill:#ffffde;stroke:#aaaa33;stroke-width:1px;}#mermaid-1682431079810 .cluster text{fill:#333;}#mermaid-1682431079810 .cluster span{color:#333;}#mermaid-1682431079810 div.mermaidTooltip{position:absolute;text-align:center;max-width:200px;padding:2px;font-family:"trebuchet ms",verdana,arial,sans-serif;font-size:12px;background:hsl(80, 100%, 96.2745098039%);border:1px solid #aaaa33;border-radius:2px;pointer-events:none;z-index:100;}#mermaid-1682431079810 .flowchartTitleText{text-anchor:middle;font-size:18px;fill:#333;}#mermaid-1682431079810 :root{--mermaid-font-family:"trebuchet ms",verdana,arial,sans-serif;}</style><g><marker orient="auto" markerHeight="12" markerWidth="12" markerUnits="userSpaceOnUse" refY="5" refX="10" viewBox="0 0 12 20" class="marker flowchart" id="flowchart-pointEnd"><path style="stroke-width: 1; stroke-dasharray: 1, 0;" class="arrowMarkerPath" d="M 0 0 L 10 5 L 0 10 z"/></marker><marker orient="auto" markerHeight="12" markerWidth="12" markerUnits="userSpaceOnUse" refY="5" refX="0" viewBox="0 0 10 10" class="marker flowchart" id="flowchart-pointStart"><path style="stroke-width: 1; stroke-dasharray: 1, 0;" class="arrowMarkerPath" d="M 0 5 L 10 10 L 10 0 z"/></marker><marker orient="auto" markerHeight="11" markerWidth="11" markerUnits="userSpaceOnUse" refY="5" refX="11" viewBox="0 0 10 10" class="marker flowchart" id="flowchart-circleEnd"><circle style="stroke-width: 1; stroke-dasharray: 1, 0;" class="arrowMarkerPath" r="5" cy="5" cx="5"/></marker><marker orient="auto" markerHeight="11" markerWidth="11" markerUnits="userSpaceOnUse" refY="5" refX="-1" viewBox="0 0 10 10" class="marker flowchart" id="flowchart-circleStart"><circle style="stroke-width: 1; stroke-dasharray: 1, 0;" class="arrowMarkerPath" r="5" cy="5" cx="5"/></marker><marker orient="auto" markerHeight="11" markerWidth="11" markerUnits="userSpaceOnUse" refY="5.2" refX="12" viewBox="0 0 11 11" class="marker cross flowchart" id="flowchart-crossEnd"><path style="stroke-width: 2; stroke-dasharray: 1, 0;" class="arrowMarkerPath" d="M 1,1 l 9,9 M 10,1 l -9,9"/></marker><marker orient="auto" markerHeight="11" markerWidth="11" markerUnits="userSpaceOnUse" refY="5.2" refX="-1" viewBox="0 0 11 11" class="marker cross flowchart" id="flowchart-crossStart"><path style="stroke-width: 2; stroke-dasharray: 1, 0;" class="arrowMarkerPath" d="M 1,1 l 9,9 M 10,1 l -9,9"/></marker><g class="root"><g class="clusters"/><g class="edgePaths"><path marker-end="url(#flowchart-pointEnd)" style="fill:none;" class="edge-thickness-normal edge-pattern-solid flowchart-link LS-si LE-common" id="L-si-common-0" d="M123.1640625,100L123.1640625,75L301.751953125,34.799076720158276"/><path marker-end="url(#flowchart-pointEnd)" style="fill:none;" class="edge-thickness-normal edge-pattern-solid flowchart-link LS-bi LE-common" id="L-bi-common-0" d="M641.271484375,100L641.271484375,75L388.814453125,32.353542818682115"/><path marker-end="url(#flowchart-pointEnd)" style="fill:none;" class="edge-thickness-normal edge-pattern-solid flowchart-link LS-br LE-si" id="L-br-si-0" d="M293.94921875,200L224.052734375,175L173.6083984375,150"/><path marker-end="url(#flowchart-pointEnd)" style="fill:none;" class="edge-thickness-normal edge-pattern-solid flowchart-link LS-br LE-bi" id="L-br-bi-0" d="M434.1220703125,200L504.3984375,175L572.8349609375,150"/><path marker-end="url(#flowchart-pointEnd)" style="fill:none;" class="edge-thickness-normal edge-pattern-solid flowchart-link LS-da LE-bi" id="L-da-bi-0" d="M651.271484375,200L651.271484375,175L646.271484375,150"/><path marker-end="url(#flowchart-pointEnd)" style="fill:none;" class="edge-thickness-normal edge-pattern-solid flowchart-link LS-ifds LE-si" id="L-ifds-si-0" d="M119.7640625,308L113.1640625,275L113.1640625,225L113.1640625,175L118.1640625,150"/><path marker-end="url(#flowchart-pointEnd)" style="fill:none;" class="edge-thickness-normal edge-pattern-solid flowchart-link LS-ifds LE-br" id="L-ifds-br-0" d="M148.8671875,312.2616397250992L224.052734375,275L293.94921875,250"/><path marker-end="url(#flowchart-pointEnd)" style="fill:none;" class="edge-thickness-normal edge-pattern-solid flowchart-link LS-ai LE-br" id="L-ai-br-0" d="M373.845703125,300L373.845703125,275L368.845703125,250"/><path marker-end="url(#flowchart-pointEnd)" style="fill:none;" class="edge-thickness-normal edge-pattern-solid flowchart-link LS-bc LE-da" id="L-bc-da-0" d="M651.271484375,300L651.271484375,275L651.271484375,250"/><path marker-end="url(#flowchart-pointEnd)" style="fill:none;" class="edge-thickness-normal edge-pattern-solid flowchart-link LS-de LE-ai" id="L-de-ai-0" d="M373.845703125,400L373.845703125,375L373.845703125,350"/><path marker-end="url(#flowchart-pointEnd)" style="fill:none;" class="edge-thickness-normal edge-pattern-solid flowchart-link LS-tac LE-ifds" id="L-tac-ifds-0" d="M128.1640625,400L123.1640625,375L123.1640625,342"/><path marker-end="url(#flowchart-pointEnd)" style="fill:none;" class="edge-thickness-normal edge-pattern-solid flowchart-link LS-tac LE-ai" id="L-tac-ai-0" d="M188.6083984375,400L244.052734375,375L308.94921875,350"/><path marker-end="url(#flowchart-pointEnd)" style="fill:none;" class="edge-thickness-normal edge-pattern-solid flowchart-link LS-ll LE-tac" id="L-ll-tac-0" d="M101.70703125,508L101.70703125,475L117.435546875,450"/><path marker-end="url(#flowchart-pointEnd)" style="fill:none;" class="edge-thickness-normal edge-pattern-solid flowchart-link LS-ba LE-ai" id="L-ba-ai-0" d="M572.8349609375,400L504.3984375,375L439.1220703125,350"/><path marker-end="url(#flowchart-pointEnd)" style="fill:none;" class="edge-thickness-normal edge-pattern-solid flowchart-link LS-ba LE-bc" id="L-ba-bc-0" d="M646.271484375,400L651.271484375,375L651.271484375,350"/><path marker-end="url(#flowchart-pointEnd)" style="fill:none;" class="edge-thickness-normal edge-pattern-solid flowchart-link LS-av LE-de" id="L-av-de-0" d="M373.845703125,500L373.845703125,475L373.845703125,450"/><path marker-end="url(#flowchart-pointEnd)" style="fill:none;" class="edge-thickness-normal edge-pattern-solid flowchart-link LS-framework LE-tac" id="L-framework-tac-0" d="M321.693359375,605.2586791741697L187.291015625,575L187.291015625,525L187.291015625,475L160.2275390625,450"/><path marker-end="url(#flowchart-pointEnd)" style="fill:none;" class="edge-thickness-normal edge-pattern-solid flowchart-link LS-framework LE-av" id="L-framework-av-0" d="M373.845703125,600L373.845703125,575L373.845703125,550"/><path marker-end="url(#flowchart-pointEnd)" style="fill:none;" class="edge-thickness-normal edge-pattern-solid flowchart-link LS-framework LE-ba" id="L-framework-ba-0" d="M425.998046875,608.8093220957918L641.271484375,575L641.271484375,525L641.271484375,475L641.271484375,450"/><path marker-end="url(#flowchart-pointEnd)" style="fill:none;" class="edge-thickness-normal edge-pattern-solid flowchart-link LS-demos LE-framework" id="L-demos-framework-0" d="M265.701171875,692L265.701171875,659L330.0729166666667,634"/><path marker-end="url(#flowchart-pointEnd)" style="fill:none;" class="edge-thickness-normal edge-pattern-solid flowchart-link LS-bp LE-framework" id="L-bp-framework-0" d="M398.314453125,684L398.314453125,659L383.74972098214283,634"/><path marker-end="url(#flowchart-pointEnd)" style="fill:none;" class="edge-thickness-normal edge-pattern-solid flowchart-link LS-hermes LE-framework" id="L-hermes-framework-0" d="M533.958984375,684L533.958984375,659L425.998046875,630.6803044719315"/></g><g class="edgeLabels"><g class="edgeLabel"><g transform="translate(0, 0)" class="label"><rect height="0" width="0" ry="0" rx="0"/><text style=""><tspan class="row" x="0" dy="1em" xml:space="preserve"/></text></g></g><g class="edgeLabel"><g transform="translate(0, 0)" class="label"><rect height="0" width="0" ry="0" rx="0"/><text style=""><tspan class="row" x="0" dy="1em" xml:space="preserve"/></text></g></g><g class="edgeLabel"><g transform="translate(0, 0)" class="label"><rect height="0" width="0" ry="0" rx="0"/><text style=""><tspan class="row" x="0" dy="1em" xml:space="preserve"/></text></g></g><g class="edgeLabel"><g transform="translate(0, 0)" class="label"><rect height="0" width="0" ry="0" rx="0"/><text style=""><tspan class="row" x="0" dy="1em" xml:space="preserve"/></text></g></g><g class="edgeLabel"><g transform="translate(0, 0)" class="label"><rect height="0" width="0" ry="0" rx="0"/><text style=""><tspan class="row" x="0" dy="1em" xml:space="preserve"/></text></g></g><g class="edgeLabel"><g transform="translate(0, 0)" class="label"><rect height="0" width="0" ry="0" rx="0"/><text style=""><tspan class="row" x="0" dy="1em" xml:space="preserve"/></text></g></g><g class="edgeLabel"><g transform="translate(0, 0)" class="label"><rect height="0" width="0" ry="0" rx="0"/><text style=""><tspan class="row" x="0" dy="1em" xml:space="preserve"/></text></g></g><g class="edgeLabel"><g transform="translate(0, 0)" class="label"><rect height="0" width="0" ry="0" rx="0"/><text style=""><tspan class="row" x="0" dy="1em" xml:space="preserve"/></text></g></g><g class="edgeLabel"><g transform="translate(0, 0)" class="label"><rect height="0" width="0" ry="0" rx="0"/><text style=""><tspan class="row" x="0" dy="1em" xml:space="preserve"/></text></g></g><g class="edgeLabel"><g transform="translate(0, 0)" class="label"><rect height="0" width="0" ry="0" rx="0"/><text style=""><tspan class="row" x="0" dy="1em" xml:space="preserve"/></text></g></g><g class="edgeLabel"><g transform="translate(0, 0)" class="label"><rect height="0" width="0" ry="0" rx="0"/><text style=""><tspan class="row" x="0" dy="1em" xml:space="preserve"/></text></g></g><g class="edgeLabel"><g transform="translate(0, 0)" class="label"><rect height="0" width="0" ry="0" rx="0"/><text style=""><tspan class="row" x="0" dy="1em" xml:space="preserve"/></text></g></g><g class="edgeLabel"><g transform="translate(0, 0)" class="label"><rect height="0" width="0" ry="0" rx="0"/><text style=""><tspan class="row" x="0" dy="1em" xml:space="preserve"/></text></g></g><g class="edgeLabel"><g transform="translate(0, 0)" class="label"><rect height="0" width="0" ry="0" rx="0"/><text style=""><tspan class="row" x="0" dy="1em" xml:space="preserve"/></text></g></g><g class="edgeLabel"><g transform="translate(0, 0)" class="label"><rect height="0" width="0" ry="0" rx="0"/><text style=""><tspan class="row" x="0" dy="1em" xml:space="preserve"/></text></g></g><g class="edgeLabel"><g transform="translate(0, 0)" class="label"><rect height="0" width="0" ry="0" rx="0"/><text style=""><tspan class="row" x="0" dy="1em" xml:space="preserve"/></text></g></g><g class="edgeLabel"><g transform="translate(0, 0)" class="label"><rect height="0" width="0" ry="0" rx="0"/><text style=""><tspan class="row" x="0" dy="1em" xml:space="preserve"/></text></g></g><g class="edgeLabel"><g transform="translate(0, 0)" class="label"><rect height="0" width="0" ry="0" rx="0"/><text style=""><tspan class="row" x="0" dy="1em" xml:space="preserve"/></text></g></g><g class="edgeLabel"><g transform="translate(0, 0)" class="label"><rect height="0" width="0" ry="0" rx="0"/><text style=""><tspan class="row" x="0" dy="1em" xml:space="preserve"/></text></g></g><g class="edgeLabel"><g transform="translate(0, 0)" class="label"><rect height="0" width="0" ry="0" rx="0"/><text style=""><tspan class="row" x="0" dy="1em" xml:space="preserve"/></text></g></g><g class="edgeLabel"><g transform="translate(0, 0)" class="label"><rect height="0" width="0" ry="0" rx="0"/><text style=""><tspan class="row" x="0" dy="1em" xml:space="preserve"/></text></g></g><g class="edgeLabel"><g transform="translate(0, 0)" class="label"><rect height="0" width="0" ry="0" rx="0"/><text style=""><tspan class="row" x="0" dy="1em" xml:space="preserve"/></text></g></g></g><g class="nodes"><g transform="translate(345.283203125, 25)" id="flowchart-common-130" class="node default default"><rect height="50" width="87.0625" y="-25" x="-43.53125" ry="0" rx="0" style="fill:#9cbecc;" class="basic label-container"/><g transform="translate(-36.03125, -17.5)" style="color:black;" class="label"><text style="fill:black;"><tspan class="row" x="0" dy="1em" xml:space="preserve">Common</tspan><tspan class="row" x="0" dy="1em" xml:space="preserve">common</tspan></text></g></g><g transform="translate(123.1640625, 125)" id="flowchart-si-131" class="node default default"><rect height="50" width="246.328125" y="-25" x="-123.1640625" ry="0" rx="0" style="" class="basic label-container"/><g transform="translate(-115.6640625, -17.5)" style="" class="label"><text style=""><tspan class="row" x="0" dy="1em" xml:space="preserve">Static Analysis Infrastructure</tspan><tspan class="row" x="0" dy="1em" xml:space="preserve">si</tspan></text></g></g><g transform="translate(641.271484375, 125)" id="flowchart-bi-132" class="node default default"><rect height="50" width="204.71875" y="-25" x="-102.359375" ry="0" rx="0" style="" class="basic label-container"/><g transform="translate(-94.859375, -17.5)" style="" class="label"><text style=""><tspan class="row" x="0" dy="1em" xml:space="preserve">Bytecode Infrastructure</tspan><tspan class="row" x="0" dy="1em" xml:space="preserve">bi</tspan></text></g></g><g transform="translate(363.845703125, 225)" id="flowchart-br-133" class="node default default"><rect height="50" width="216.75" y="-25" x="-108.375" ry="0" rx="0" style="" class="basic label-container"/><g transform="translate(-100.875, -17.5)" style="" class="label"><text style=""><tspan class="row" x="0" dy="1em" xml:space="preserve">Bytecode Representation</tspan><tspan class="row" x="0" dy="1em" xml:space="preserve">br</tspan></text></g></g><g transform="translate(651.271484375, 225)" id="flowchart-da-134" class="node default default"><rect height="50" width="203.6875" y="-25" x="-101.84375" ry="0" rx="0" style="" class="basic label-container"/><g transform="translate(-94.34375, -17.5)" style="" class="label"><text style=""><tspan class="row" x="0" dy="1em" xml:space="preserve">Bytecode Disassembler</tspan><tspan class="row" x="0" dy="1em" xml:space="preserve">da</tspan></text></g></g><g transform="translate(123.1640625, 325)" id="flowchart-ifds-135" class="node default default"><rect height="34" width="51.40625" y="-17" x="-25.703125" ry="0" rx="0" style="" class="basic label-container"/><g transform="translate(-18.203125, -9.5)" style="" class="label"><text style=""><tspan class="row" x="0" dy="1em" xml:space="preserve">IFDS</tspan></text></g></g><g transform="translate(373.845703125, 325)" id="flowchart-ai-136" class="node default default"><rect height="50" width="292.1484375" y="-25" x="-146.07421875" ry="0" rx="0" style="" class="basic label-container"/><g transform="translate(-138.57421875, -17.5)" style="" class="label"><text style=""><tspan class="row" x="0" dy="1em" xml:space="preserve">Abstract Interpretation Framework</tspan><tspan class="row" x="0" dy="1em" xml:space="preserve">ai</tspan></text></g></g><g transform="translate(651.271484375, 325)" id="flowchart-bc-137" class="node default default"><rect height="50" width="155.34375" y="-25" x="-77.671875" ry="0" rx="0" style="" class="basic label-container"/><g transform="translate(-70.171875, -17.5)" style="" class="label"><text style=""><tspan class="row" x="0" dy="1em" xml:space="preserve">Bytecode Creator</tspan><tspan class="row" x="0" dy="1em" xml:space="preserve">bc</tspan></text></g></g><g transform="translate(133.1640625, 425)" id="flowchart-tac-138" class="node default default"><rect height="50" width="176.6875" y="-25" x="-88.34375" ry="0" rx="0" style="" class="basic label-container"/><g transform="translate(-80.84375, -17.5)" style="" class="label"><text style=""><tspan class="row" x="0" dy="1em" xml:space="preserve">Three Address Code</tspan><tspan class="row" x="0" dy="1em" xml:space="preserve">tac</tspan></text></g></g><g transform="translate(373.845703125, 425)" id="flowchart-de-139" class="node default default"><rect height="50" width="202.484375" y="-25" x="-101.2421875" ry="0" rx="0" style="" class="basic label-container"/><g transform="translate(-93.7421875, -17.5)" style="" class="label"><text style=""><tspan class="row" x="0" dy="1em" xml:space="preserve">Dependency Extraction</tspan><tspan class="row" x="0" dy="1em" xml:space="preserve">de</tspan></text></g></g><g transform="translate(641.271484375, 425)" id="flowchart-ba-140" class="node default default"><rect height="50" width="179.7265625" y="-25" x="-89.86328125" ry="0" rx="0" style="" class="basic label-container"/><g transform="translate(-82.36328125, -17.5)" style="" class="label"><text style=""><tspan class="row" x="0" dy="1em" xml:space="preserve">Bytecode Assembler</tspan><tspan class="row" x="0" dy="1em" xml:space="preserve">ba</tspan></text></g></g><g transform="translate(101.70703125, 525)" id="flowchart-ll-141" class="node default default"><rect height="34" width="55.828125" y="-17" x="-27.9140625" ry="0" rx="0" style="" class="basic label-container"/><g transform="translate(-20.4140625, -9.5)" style="" class="label"><text style=""><tspan class="row" x="0" dy="1em" xml:space="preserve">LLVM</tspan></text></g></g><g transform="translate(373.845703125, 525)" id="flowchart-av-142" class="node default default"><rect height="50" width="197.046875" y="-25" x="-98.5234375" ry="0" rx="0" style="" class="basic label-container"/><g transform="translate(-91.0234375, -17.5)" style="" class="label"><text style=""><tspan class="row" x="0" dy="1em" xml:space="preserve">Architecture Validation</tspan><tspan class="row" x="0" dy="1em" xml:space="preserve">av</tspan></text></g></g><g transform="translate(373.845703125, 617)" id="flowchart-framework-143" class="node default default"><rect height="34" width="104.3046875" y="-17" x="-52.15234375" ry="0" rx="0" style="fill:#c0ffc0;" class="basic label-container"/><g transform="translate(-44.65234375, -9.5)" style="" class="label"><text style=""><tspan class="row" x="0" dy="1em" xml:space="preserve">Framework</tspan></text></g></g><g transform="translate(265.701171875, 709)" id="flowchart-demos-144" class="node default default"><rect height="34" width="70.875" y="-17" x="-35.4375" ry="0" rx="0" style="" class="basic label-container"/><g transform="translate(-27.9375, -9.5)" style="" class="label"><text style=""><tspan class="row" x="0" dy="1em" xml:space="preserve">Demos</tspan></text></g></g><g transform="translate(398.314453125, 709)" id="flowchart-bp-145" class="node default default"><rect height="50" width="94.3515625" y="-25" x="-47.17578125" ry="0" rx="0" style="fill:#ffd7cf;" class="basic label-container"/><g transform="translate(-39.67578125, -17.5)" style="" class="label"><text style=""><tspan class="row" x="0" dy="1em" xml:space="preserve">BugPicker</tspan><tspan class="row" x="0" dy="1em" xml:space="preserve">bp</tspan></text></g></g><g transform="translate(533.958984375, 709)" id="flowchart-hermes-146" class="node default default"><rect height="50" width="76.9375" y="-25" x="-38.46875" ry="0" rx="0" style="fill:#ffd7cf;" class="basic label-container"/><g transform="translate(-30.96875, -17.5)" style="" class="label"><text style=""><tspan class="row" x="0" dy="1em" xml:space="preserve">Hermes</tspan><tspan class="row" x="0" dy="1em" xml:space="preserve">hermes</tspan></text></g></g></g></g></g></svg>