<svg aria-roledescription="flowchart-v2" role="graphics-document document" viewBox="-8 -8 802.029296875 766" height="766" xmlns:xlink="http://www.w3.org/1999/xlink" xmlns="http://www.w3.org/2000/svg" width="802.029296875" id="my-svg" style="background-color: white;"><style>#my-svg{font-family:"trebuchet ms",verdana,arial,sans-serif;font-size:16px;fill:#333;}#my-svg .error-icon{fill:#552222;}#my-svg .error-text{fill:#552222;stroke:#552222;}#my-svg .edge-thickness-normal{stroke-width:2px;}#my-svg .edge-thickness-thick{stroke-width:3.5px;}#my-svg .edge-pattern-solid{stroke-dasharray:0;}#my-svg .edge-pattern-dashed{stroke-dasharray:3;}#my-svg .edge-pattern-dotted{stroke-dasharray:2;}#my-svg .marker{fill:#333333;stroke:#333333;}#my-svg .marker.cross{stroke:#333333;}#my-svg svg{font-family:"trebuchet ms",verdana,arial,sans-serif;font-size:16px;}#my-svg .label{font-family:"trebuchet ms",verdana,arial,sans-serif;color:#333;}#my-svg .cluster-label text{fill:#333;}#my-svg .cluster-label span,#my-svg p{color:#333;}#my-svg .label text,#my-svg span,#my-svg p{fill:#333;color:#333;}#my-svg .node rect,#my-svg .node circle,#my-svg .node ellipse,#my-svg .node polygon,#my-svg .node path{fill:#ECECFF;stroke:#9370DB;stroke-width:1px;}#my-svg .flowchart-label text{text-anchor:middle;}#my-svg .node .label{text-align:center;}#my-svg .node.clickable{cursor:pointer;}#my-svg .arrowheadPath{fill:#333333;}#my-svg .edgePath .path{stroke:#333333;stroke-width:2.0px;}#my-svg .flowchart-link{stroke:#333333;fill:none;}#my-svg .edgeLabel{background-color:#e8e8e8;text-align:center;}#my-svg .edgeLabel rect{opacity:0.5;background-color:#e8e8e8;fill:#e8e8e8;}#my-svg .labelBkg{background-color:rgba(232, 232, 232, 0.5);}#my-svg .cluster rect{fill:#ffffde;stroke:#aaaa33;stroke-width:1px;}#my-svg .cluster text{fill:#333;}#my-svg .cluster span,#my-svg p{color:#333;}#my-svg div.mermaidTooltip{position:absolute;text-align:center;max-width:200px;padding:2px;font-family:"trebuchet ms",verdana,arial,sans-serif;font-size:12px;background:hsl(80, 100%, 96.2745098039%);border:1px solid #aaaa33;border-radius:2px;pointer-events:none;z-index:100;}#my-svg .flowchartTitleText{text-anchor:middle;font-size:18px;fill:#333;}#my-svg :root{--mermaid-font-family:"trebuchet ms",verdana,arial,sans-serif;}</style><g><marker orient="auto" markerHeight="12" markerWidth="12" markerUnits="userSpaceOnUse" refY="5" refX="6" viewBox="0 0 10 10" class="marker flowchart" id="my-svg_flowchart-pointEnd"><path style="stroke-width: 1; stroke-dasharray: 1, 0;" class="arrowMarkerPath" d="M 0 0 L 10 5 L 0 10 z"/></marker><marker orient="auto" markerHeight="12" markerWidth="12" markerUnits="userSpaceOnUse" refY="5" refX="4.5" viewBox="0 0 10 10" class="marker flowchart" id="my-svg_flowchart-pointStart"><path style="stroke-width: 1; stroke-dasharray: 1, 0;" class="arrowMarkerPath" d="M 0 5 L 10 10 L 10 0 z"/></marker><marker orient="auto" markerHeight="11" markerWidth="11" markerUnits="userSpaceOnUse" refY="5" refX="11" viewBox="0 0 10 10" class="marker flowchart" id="my-svg_flowchart-circleEnd"><circle style="stroke-width: 1; stroke-dasharray: 1, 0;" class="arrowMarkerPath" r="5" cy="5" cx="5"/></marker><marker orient="auto" markerHeight="11" markerWidth="11" markerUnits="userSpaceOnUse" refY="5" refX="-1" viewBox="0 0 10 10" class="marker flowchart" id="my-svg_flowchart-circleStart"><circle style="stroke-width: 1; stroke-dasharray: 1, 0;" class="arrowMarkerPath" r="5" cy="5" cx="5"/></marker><marker orient="auto" markerHeight="11" markerWidth="11" markerUnits="userSpaceOnUse" refY="5.2" refX="12" viewBox="0 0 11 11" class="marker cross flowchart" id="my-svg_flowchart-crossEnd"><path style="stroke-width: 2; stroke-dasharray: 1, 0;" class="arrowMarkerPath" d="M 1,1 l 9,9 M 10,1 l -9,9"/></marker><marker orient="auto" markerHeight="11" markerWidth="11" markerUnits="userSpaceOnUse" refY="5.2" refX="-1" viewBox="0 0 11 11" class="marker cross flowchart" id="my-svg_flowchart-crossStart"><path style="stroke-width: 2; stroke-dasharray: 1, 0;" class="arrowMarkerPath" d="M 1,1 l 9,9 M 10,1 l -9,9"/></marker><g class="root"><g class="clusters"/><g class="edgePaths"><path marker-end="url(#my-svg_flowchart-pointEnd)" style="fill:none;" class="edge-thickness-normal edge-pattern-solid flowchart-link LS-si LE-common" id="L-si-common-0" d="M123.1640625,100L123.1640625,75L316.2004644681176,35.0764914333187"/><path marker-end="url(#my-svg_flowchart-pointEnd)" style="fill:none;" class="edge-thickness-normal edge-pattern-solid flowchart-link LS-bi LE-common" id="L-bi-common-0" d="M665.833984375,100L665.833984375,75L413.68144048363047,33.10196133098548"/><path marker-end="url(#my-svg_flowchart-pointEnd)" style="fill:none;" class="edge-thickness-normal edge-pattern-solid flowchart-link LS-br LE-si" id="L-br-si-0" d="M306.23046875,200L224.052734375,175L178.35719892706106,152.35348548122667"/><path marker-end="url(#my-svg_flowchart-pointEnd)" style="fill:none;" class="edge-thickness-normal edge-pattern-solid flowchart-link LS-br LE-bi" id="L-br-bi-0" d="M462.8603515625,200L537.3125,175L596.6338696263203,151.9216135672568"/><path marker-end="url(#my-svg_flowchart-pointEnd)" style="fill:none;" class="edge-thickness-normal edge-pattern-solid flowchart-link LS-da LE-bi" id="L-da-bi-0" d="M684.185546875,200L684.185546875,175L676.8359141646109,154.97545791975742"/><path marker-end="url(#my-svg_flowchart-pointEnd)" style="fill:none;" class="edge-thickness-normal edge-pattern-solid flowchart-link LS-ifds LE-si" id="L-ifds-si-0" d="M123.33984375,300L113.1640625,275L113.1640625,225L113.1640625,175L117.12464698376762,155.19707758116186"/><path marker-end="url(#my-svg_flowchart-pointEnd)" style="fill:none;" class="edge-thickness-normal edge-pattern-solid flowchart-link LS-ifds LE-br" id="L-ifds-br-0" d="M159.21875,312.2616397250992L234.404296875,275L306.36527635696217,251.636638240479"/><path marker-end="url(#my-svg_flowchart-pointEnd)" style="fill:none;" class="edge-thickness-normal edge-pattern-solid flowchart-link LS-ai LE-br" id="L-ai-br-0" d="M406.759765625,300L406.759765625,275L399.410132914611,254.97545791975742"/><path marker-end="url(#my-svg_flowchart-pointEnd)" style="fill:none;" class="edge-thickness-normal edge-pattern-solid flowchart-link LS-bc LE-da" id="L-bc-da-0" d="M684.185546875,300L684.185546875,275L684.185546875,255.3"/><path marker-end="url(#my-svg_flowchart-pointEnd)" style="fill:none;" class="edge-thickness-normal edge-pattern-solid flowchart-link LS-de LE-ai" id="L-de-ai-0" d="M405.6640625,400L405.6640625,375L406.0957974090294,355.2987278589098"/><path marker-end="url(#my-svg_flowchart-pointEnd)" style="fill:none;" class="edge-thickness-normal edge-pattern-solid flowchart-link LS-tac LE-ifds" id="L-tac-ifds-0" d="M149.796875,400L133.515625,375L133.515625,355.3"/><path marker-end="url(#my-svg_flowchart-pointEnd)" style="fill:none;" class="edge-thickness-normal edge-pattern-solid flowchart-link LS-tac LE-ai" id="L-tac-ai-0" d="M220.974609375,400L275.87109375,375L336.364378930241,351.89132133680266"/><path marker-end="url(#my-svg_flowchart-pointEnd)" style="fill:none;" class="edge-thickness-normal edge-pattern-solid flowchart-link LS-ll LE-tac" id="L-ll-tac-0" d="M134.62109375,500L134.62109375,475L147.5272701393755,454.4860228754493"/><path marker-end="url(#my-svg_flowchart-pointEnd)" style="fill:none;" class="edge-thickness-normal edge-pattern-solid flowchart-link LS-apk LE-br" id="L-apk-br-0" d="M47.9375,600L41.4921875,575L41.4921875,525L41.4921875,475L41.4921875,425L41.4921875,375L41.4921875,325L41.4921875,275L274.7874075430696,241.37583600417415"/><path marker-end="url(#my-svg_flowchart-pointEnd)" style="fill:none;" class="edge-thickness-normal edge-pattern-solid flowchart-link LS-apk LE-ll" id="L-apk-ll-0" d="M77.6796875,610.4826931502848L134.62109375,575L134.62109375,555.3"/><path marker-end="url(#my-svg_flowchart-pointEnd)" style="fill:none;" class="edge-thickness-normal edge-pattern-solid flowchart-link LS-ba LE-ai" id="L-ba-ai-0" d="M601.5732421875,400L537.3125,375L476.98555991561847,351.89556623490614"/><path marker-end="url(#my-svg_flowchart-pointEnd)" style="fill:none;" class="edge-thickness-normal edge-pattern-solid flowchart-link LS-ba LE-bc" id="L-ba-bc-0" d="M675.009765625,400L684.185546875,375L684.185546875,355.3"/><path marker-end="url(#my-svg_flowchart-pointEnd)" style="fill:none;" class="edge-thickness-normal edge-pattern-solid flowchart-link LS-av LE-de" id="L-av-de-0" d="M405.6640625,500L405.6640625,475L405.6640625,455.3"/><path marker-end="url(#my-svg_flowchart-pointEnd)" style="fill:none;" class="edge-thickness-normal edge-pattern-solid flowchart-link LS-framework LE-tac" id="L-framework-tac-0" d="M354.607421875,612.5367568122625L197.53515625,575L197.53515625,525L197.53515625,475L184.6289798606245,454.4860228754493"/><path marker-end="url(#my-svg_flowchart-pointEnd)" style="fill:none;" class="edge-thickness-normal edge-pattern-solid flowchart-link LS-framework LE-av" id="L-framework-av-0" d="M406.3872265625,608L405.6640625,575L405.6640625,555.3"/><path marker-end="url(#my-svg_flowchart-pointEnd)" style="fill:none;" class="edge-thickness-normal edge-pattern-solid flowchart-link LS-framework LE-ba" id="L-framework-ba-0" d="M458.912109375,614.9348642250803L665.833984375,575L665.833984375,525L665.833984375,475L665.833984375,455.3"/><path marker-end="url(#my-svg_flowchart-pointEnd)" style="fill:none;" class="edge-thickness-normal edge-pattern-solid flowchart-link LS-demos LE-framework" id="L-demos-framework-0" d="M272.630859375,708L272.630859375,675L356.18977070359807,643.8512664179732"/><path marker-end="url(#my-svg_flowchart-pointEnd)" style="fill:none;" class="edge-thickness-normal edge-pattern-solid flowchart-link LS-bp LE-framework" id="L-bp-framework-0" d="M405.244140625,700L405.244140625,675L406.0838706334837,647.2975667304356"/><path marker-end="url(#my-svg_flowchart-pointEnd)" style="fill:none;" class="edge-thickness-normal edge-pattern-solid flowchart-link LS-hermes LE-framework" id="L-hermes-framework-0" d="M540.888671875,700L540.888671875,675L457.32976054640193,643.8512664179732"/></g><g class="edgeLabels"><g class="edgeLabel"><g transform="translate(0, 0)" class="label"><rect height="0" width="0" ry="0" rx="0"/><text style=""><tspan class="row" x="0" dy="1em" xml:space="preserve"/></text></g></g><g class="edgeLabel"><g transform="translate(0, 0)" class="label"><rect height="0" width="0" ry="0" rx="0"/><text style=""><tspan class="row" x="0" dy="1em" xml:space="preserve"/></text></g></g><g class="edgeLabel"><g transform="translate(0, 0)" class="label"><rect height="0" width="0" ry="0" rx="0"/><text style=""><tspan class="row" x="0" dy="1em" xml:space="preserve"/></text></g></g><g class="edgeLabel"><g transform="translate(0, 0)" class="label"><rect height="0" width="0" ry="0" rx="0"/><text style=""><tspan class="row" x="0" dy="1em" xml:space="preserve"/></text></g></g><g class="edgeLabel"><g transform="translate(0, 0)" class="label"><rect height="0" width="0" ry="0" rx="0"/><text style=""><tspan class="row" x="0" dy="1em" xml:space="preserve"/></text></g></g><g class="edgeLabel"><g transform="translate(0, 0)" class="label"><rect height="0" width="0" ry="0" rx="0"/><text style=""><tspan class="row" x="0" dy="1em" xml:space="preserve"/></text></g></g><g class="edgeLabel"><g transform="translate(0, 0)" class="label"><rect height="0" width="0" ry="0" rx="0"/><text style=""><tspan class="row" x="0" dy="1em" xml:space="preserve"/></text></g></g><g class="edgeLabel"><g transform="translate(0, 0)" class="label"><rect height="0" width="0" ry="0" rx="0"/><text style=""><tspan class="row" x="0" dy="1em" xml:space="preserve"/></text></g></g><g class="edgeLabel"><g transform="translate(0, 0)" class="label"><rect height="0" width="0" ry="0" rx="0"/><text style=""><tspan class="row" x="0" dy="1em" xml:space="preserve"/></text></g></g><g class="edgeLabel"><g transform="translate(0, 0)" class="label"><rect height="0" width="0" ry="0" rx="0"/><text style=""><tspan class="row" x="0" dy="1em" xml:space="preserve"/></text></g></g><g class="edgeLabel"><g transform="translate(0, 0)" class="label"><rect height="0" width="0" ry="0" rx="0"/><text style=""><tspan class="row" x="0" dy="1em" xml:space="preserve"/></text></g></g><g class="edgeLabel"><g transform="translate(0, 0)" class="label"><rect height="0" width="0" ry="0" rx="0"/><text style=""><tspan class="row" x="0" dy="1em" xml:space="preserve"/></text></g></g><g class="edgeLabel"><g transform="translate(0, 0)" class="label"><rect height="0" width="0" ry="0" rx="0"/><text style=""><tspan class="row" x="0" dy="1em" xml:space="preserve"/></text></g></g><g class="edgeLabel"><g transform="translate(0, 0)" class="label"><rect height="0" width="0" ry="0" rx="0"/><text style=""><tspan class="row" x="0" dy="1em" xml:space="preserve"/></text></g></g><g class="edgeLabel"><g transform="translate(0, 0)" class="label"><rect height="0" width="0" ry="0" rx="0"/><text style=""><tspan class="row" x="0" dy="1em" xml:space="preserve"/></text></g></g><g class="edgeLabel"><g transform="translate(0, 0)" class="label"><rect height="0" width="0" ry="0" rx="0"/><text style=""><tspan class="row" x="0" dy="1em" xml:space="preserve"/></text></g></g><g class="edgeLabel"><g transform="translate(0, 0)" class="label"><rect height="0" width="0" ry="0" rx="0"/><text style=""><tspan class="row" x="0" dy="1em" xml:space="preserve"/></text></g></g><g class="edgeLabel"><g transform="translate(0, 0)" class="label"><rect height="0" width="0" ry="0" rx="0"/><text style=""><tspan class="row" x="0" dy="1em" xml:space="preserve"/></text></g></g><g class="edgeLabel"><g transform="translate(0, 0)" class="label"><rect height="0" width="0" ry="0" rx="0"/><text style=""><tspan class="row" x="0" dy="1em" xml:space="preserve"/></text></g></g><g class="edgeLabel"><g transform="translate(0, 0)" class="label"><rect height="0" width="0" ry="0" rx="0"/><text style=""><tspan class="row" x="0" dy="1em" xml:space="preserve"/></text></g></g><g class="edgeLabel"><g transform="translate(0, 0)" class="label"><rect height="0" width="0" ry="0" rx="0"/><text style=""><tspan class="row" x="0" dy="1em" xml:space="preserve"/></text></g></g><g class="edgeLabel"><g transform="translate(0, 0)" class="label"><rect height="0" width="0" ry="0" rx="0"/><text style=""><tspan class="row" x="0" dy="1em" xml:space="preserve"/></text></g></g><g class="edgeLabel"><g transform="translate(0, 0)" class="label"><rect height="0" width="0" ry="0" rx="0"/><text style=""><tspan class="row" x="0" dy="1em" xml:space="preserve"/></text></g></g><g class="edgeLabel"><g transform="translate(0, 0)" class="label"><rect height="0" width="0" ry="0" rx="0"/><text style=""><tspan class="row" x="0" dy="1em" xml:space="preserve"/></text></g></g></g><g class="nodes"><g transform="translate(364.921875, 25)" id="flowchart-common-0" class="node default default flowchart-label"><rect height="50" width="87.0625" y="-25" x="-43.53125" ry="0" rx="0" style="fill:#9cbecc;" class="basic label-container"/><g transform="translate(0, -17.5)" style="color:black;" class="label"><rect/><text style="fill:black;"><tspan class="row" x="0" dy="1em" xml:space="preserve">Common</tspan><tspan class="row" x="0" dy="1em" xml:space="preserve">common</tspan></text></g></g><g transform="translate(123.1640625, 125)" id="flowchart-si-1" class="node default default flowchart-label"><rect height="50" width="246.328125" y="-25" x="-123.1640625" ry="0" rx="0" style="" class="basic label-container"/><g transform="translate(0, -17.5)" style="" class="label"><rect/><text style=""><tspan class="row" x="0" dy="1em" xml:space="preserve">Static Analysis Infrastructure</tspan><tspan class="row" x="0" dy="1em" xml:space="preserve">si</tspan></text></g></g><g transform="translate(665.833984375, 125)" id="flowchart-bi-2" class="node default default flowchart-label"><rect height="50" width="204.71875" y="-25" x="-102.359375" ry="0" rx="0" style="" class="basic label-container"/><g transform="translate(0, -17.5)" style="" class="label"><rect/><text style=""><tspan class="row" x="0" dy="1em" xml:space="preserve">Bytecode Infrastructure</tspan><tspan class="row" x="0" dy="1em" xml:space="preserve">bi</tspan></text></g></g><g transform="translate(388.408203125, 225)" id="flowchart-br-3" class="node default default flowchart-label"><rect height="50" width="216.75" y="-25" x="-108.375" ry="0" rx="0" style="" class="basic label-container"/><g transform="translate(0, -17.5)" style="" class="label"><rect/><text style=""><tspan class="row" x="0" dy="1em" xml:space="preserve">Bytecode Representation</tspan><tspan class="row" x="0" dy="1em" xml:space="preserve">br</tspan></text></g></g><g transform="translate(684.185546875, 225)" id="flowchart-da-4" class="node default default flowchart-label"><rect height="50" width="203.6875" y="-25" x="-101.84375" ry="0" rx="0" style="" class="basic label-container"/><g transform="translate(0, -17.5)" style="" class="label"><rect/><text style=""><tspan class="row" x="0" dy="1em" xml:space="preserve">Bytecode Disassembler</tspan><tspan class="row" x="0" dy="1em" xml:space="preserve">da</tspan></text></g></g><g transform="translate(133.515625, 325)" id="flowchart-ifds-5" class="node default default flowchart-label"><rect height="50" width="51.40625" y="-25" x="-25.703125" ry="0" rx="0" style="" class="basic label-container"/><g transform="translate(0, -17.5)" style="" class="label"><rect/><text style=""><tspan class="row" x="0" dy="1em" xml:space="preserve">IFDS</tspan><tspan class="row" x="0" dy="1em" xml:space="preserve">ifds</tspan></text></g></g><g transform="translate(406.759765625, 325)" id="flowchart-ai-6" class="node default default flowchart-label"><rect height="50" width="292.1484375" y="-25" x="-146.07421875" ry="0" rx="0" style="" class="basic label-container"/><g transform="translate(0, -17.5)" style="" class="label"><rect/><text style=""><tspan class="row" x="0" dy="1em" xml:space="preserve">Abstract Interpretation Framework</tspan><tspan class="row" x="0" dy="1em" xml:space="preserve">ai</tspan></text></g></g><g transform="translate(684.185546875, 325)" id="flowchart-bc-7" class="node default default flowchart-label"><rect height="50" width="155.34375" y="-25" x="-77.671875" ry="0" rx="0" style="" class="basic label-container"/><g transform="translate(0, -17.5)" style="" class="label"><rect/><text style=""><tspan class="row" x="0" dy="1em" xml:space="preserve">Bytecode Creator</tspan><tspan class="row" x="0" dy="1em" xml:space="preserve">bc</tspan></text></g></g><g transform="translate(166.078125, 425)" id="flowchart-tac-8" class="node default default flowchart-label"><rect height="50" width="176.6875" y="-25" x="-88.34375" ry="0" rx="0" style="" class="basic label-container"/><g transform="translate(0, -17.5)" style="" class="label"><rect/><text style=""><tspan class="row" x="0" dy="1em" xml:space="preserve">Three Address Code</tspan><tspan class="row" x="0" dy="1em" xml:space="preserve">tac</tspan></text></g></g><g transform="translate(405.6640625, 425)" id="flowchart-de-9" class="node default default flowchart-label"><rect height="50" width="202.484375" y="-25" x="-101.2421875" ry="0" rx="0" style="" class="basic label-container"/><g transform="translate(0, -17.5)" style="" class="label"><rect/><text style=""><tspan class="row" x="0" dy="1em" xml:space="preserve">Dependency Extraction</tspan><tspan class="row" x="0" dy="1em" xml:space="preserve">de</tspan></text></g></g><g transform="translate(665.833984375, 425)" id="flowchart-ba-10" class="node default default flowchart-label"><rect height="50" width="179.7265625" y="-25" x="-89.86328125" ry="0" rx="0" style="" class="basic label-container"/><g transform="translate(0, -17.5)" style="" class="label"><rect/><text style=""><tspan class="row" x="0" dy="1em" xml:space="preserve">Bytecode Assembler</tspan><tspan class="row" x="0" dy="1em" xml:space="preserve">ba</tspan></text></g></g><g transform="translate(134.62109375, 525)" id="flowchart-ll-11" class="node default default flowchart-label"><rect height="50" width="55.828125" y="-25" x="-27.9140625" ry="0" rx="0" style="" class="basic label-container"/><g transform="translate(0, -17.5)" style="" class="label"><rect/><text style=""><tspan class="row" x="0" dy="1em" xml:space="preserve">LLVM</tspan><tspan class="row" x="0" dy="1em" xml:space="preserve">ll</tspan></text></g></g><g transform="translate(54.3828125, 625)" id="flowchart-apk-12" class="node default default flowchart-label"><rect height="50" width="46.59375" y="-25" x="-23.296875" ry="0" rx="0" style="" class="basic label-container"/><g transform="translate(0, -17.5)" style="" class="label"><rect/><text style=""><tspan class="row" x="0" dy="1em" xml:space="preserve">APK</tspan><tspan class="row" x="0" dy="1em" xml:space="preserve">apk</tspan></text></g></g><g transform="translate(405.6640625, 525)" id="flowchart-av-13" class="node default default flowchart-label"><rect height="50" width="197.046875" y="-25" x="-98.5234375" ry="0" rx="0" style="" class="basic label-container"/><g transform="translate(0, -17.5)" style="" class="label"><rect/><text style=""><tspan class="row" x="0" dy="1em" xml:space="preserve">Architecture Validation</tspan><tspan class="row" x="0" dy="1em" xml:space="preserve">av</tspan></text></g></g><g transform="translate(406.759765625, 625)" id="flowchart-framework-14" class="node default default flowchart-label"><rect height="34" width="104.3046875" y="-17" x="-52.15234375" ry="0" rx="0" style="fill:#c0ffc0;" class="basic label-container"/><g transform="translate(0, -9.5)" style="" class="label"><rect/><text style=""><tspan class="row" x="0" dy="1em" xml:space="preserve">Framework</tspan></text></g></g><g transform="translate(272.630859375, 725)" id="flowchart-demos-15" class="node default default flowchart-label"><rect height="34" width="70.875" y="-17" x="-35.4375" ry="0" rx="0" style="" class="basic label-container"/><g transform="translate(0, -9.5)" style="" class="label"><rect/><text style=""><tspan class="row" x="0" dy="1em" xml:space="preserve">Demos</tspan></text></g></g><g transform="translate(405.244140625, 725)" id="flowchart-bp-16" class="node default default flowchart-label"><rect height="50" width="94.3515625" y="-25" x="-47.17578125" ry="0" rx="0" style="fill:#ffd7cf;" class="basic label-container"/><g transform="translate(0, -17.5)" style="" class="label"><rect/><text style=""><tspan class="row" x="0" dy="1em" xml:space="preserve">BugPicker</tspan><tspan class="row" x="0" dy="1em" xml:space="preserve">bp</tspan></text></g></g><g transform="translate(540.888671875, 725)" id="flowchart-hermes-17" class="node default default flowchart-label"><rect height="50" width="76.9375" y="-25" x="-38.46875" ry="0" rx="0" style="fill:#ffd7cf;" class="basic label-container"/><g transform="translate(0, -17.5)" style="" class="label"><rect/><text style=""><tspan class="row" x="0" dy="1em" xml:space="preserve">Hermes</tspan><tspan class="row" x="0" dy="1em" xml:space="preserve">hermes</tspan></text></g></g></g></g></g></svg>