<svg aria-roledescription="flowchart-v2" role="graphics-document document" viewBox="-8 -8 998.564453125 766" height="766" xmlns:xlink="http://www.w3.org/1999/xlink" xmlns="http://www.w3.org/2000/svg" width="998.564453125" id="my-svg" style="background-color: white;"><style>#my-svg{font-family:"trebuchet ms",verdana,arial,sans-serif;font-size:16px;fill:#333;}#my-svg .error-icon{fill:#552222;}#my-svg .error-text{fill:#552222;stroke:#552222;}#my-svg .edge-thickness-normal{stroke-width:2px;}#my-svg .edge-thickness-thick{stroke-width:3.5px;}#my-svg .edge-pattern-solid{stroke-dasharray:0;}#my-svg .edge-pattern-dashed{stroke-dasharray:3;}#my-svg .edge-pattern-dotted{stroke-dasharray:2;}#my-svg .marker{fill:#333333;stroke:#333333;}#my-svg .marker.cross{stroke:#333333;}#my-svg svg{font-family:"trebuchet ms",verdana,arial,sans-serif;font-size:16px;}#my-svg .label{font-family:"trebuchet ms",verdana,arial,sans-serif;color:#333;}#my-svg .cluster-label text{fill:#333;}#my-svg .cluster-label span,#my-svg p{color:#333;}#my-svg .label text,#my-svg span,#my-svg p{fill:#333;color:#333;}#my-svg .node rect,#my-svg .node circle,#my-svg .node ellipse,#my-svg .node polygon,#my-svg .node path{fill:#ECECFF;stroke:#9370DB;stroke-width:1px;}#my-svg .flowchart-label text{text-anchor:middle;}#my-svg .node .katex path{fill:#000;stroke:#000;stroke-width:1px;}#my-svg .node .label{text-align:center;}#my-svg .node.clickable{cursor:pointer;}#my-svg .arrowheadPath{fill:#333333;}#my-svg .edgePath .path{stroke:#333333;stroke-width:2.0px;}#my-svg .flowchart-link{stroke:#333333;fill:none;}#my-svg .edgeLabel{background-color:#e8e8e8;text-align:center;}#my-svg .edgeLabel rect{opacity:0.5;background-color:#e8e8e8;fill:#e8e8e8;}#my-svg .labelBkg{background-color:rgba(232, 232, 232, 0.5);}#my-svg .cluster rect{fill:#ffffde;stroke:#aaaa33;stroke-width:1px;}#my-svg .cluster text{fill:#333;}#my-svg .cluster span,#my-svg p{color:#333;}#my-svg div.mermaidTooltip{position:absolute;text-align:center;max-width:200px;padding:2px;font-family:"trebuchet ms",verdana,arial,sans-serif;font-size:12px;background:hsl(80, 100%, 96.2745098039%);border:1px solid #aaaa33;border-radius:2px;pointer-events:none;z-index:100;}#my-svg .flowchartTitleText{text-anchor:middle;font-size:18px;fill:#333;}#my-svg :root{--mermaid-font-family:"trebuchet ms",verdana,arial,sans-serif;}</style><g><marker orient="auto" markerHeight="12" markerWidth="12" markerUnits="userSpaceOnUse" refY="5" refX="6" viewBox="0 0 10 10" class="marker flowchart" id="my-svg_flowchart-pointEnd"><path style="stroke-width: 1; stroke-dasharray: 1, 0;" class="arrowMarkerPath" d="M 0 0 L 10 5 L 0 10 z"/></marker><marker orient="auto" markerHeight="12" markerWidth="12" markerUnits="userSpaceOnUse" refY="5" refX="4.5" viewBox="0 0 10 10" class="marker flowchart" id="my-svg_flowchart-pointStart"><path style="stroke-width: 1; stroke-dasharray: 1, 0;" class="arrowMarkerPath" d="M 0 5 L 10 10 L 10 0 z"/></marker><marker orient="auto" markerHeight="11" markerWidth="11" markerUnits="userSpaceOnUse" refY="5" refX="11" viewBox="0 0 10 10" class="marker flowchart" id="my-svg_flowchart-circleEnd"><circle style="stroke-width: 1; stroke-dasharray: 1, 0;" class="arrowMarkerPath" r="5" cy="5" cx="5"/></marker><marker orient="auto" markerHeight="11" markerWidth="11" markerUnits="userSpaceOnUse" refY="5" refX="-1" viewBox="0 0 10 10" class="marker flowchart" id="my-svg_flowchart-circleStart"><circle style="stroke-width: 1; stroke-dasharray: 1, 0;" class="arrowMarkerPath" r="5" cy="5" cx="5"/></marker><marker orient="auto" markerHeight="11" markerWidth="11" markerUnits="userSpaceOnUse" refY="5.2" refX="12" viewBox="0 0 11 11" class="marker cross flowchart" id="my-svg_flowchart-crossEnd"><path style="stroke-width: 2; stroke-dasharray: 1, 0;" class="arrowMarkerPath" d="M 1,1 l 9,9 M 10,1 l -9,9"/></marker><marker orient="auto" markerHeight="11" markerWidth="11" markerUnits="userSpaceOnUse" refY="5.2" refX="-1" viewBox="0 0 11 11" class="marker cross flowchart" id="my-svg_flowchart-crossStart"><path style="stroke-width: 2; stroke-dasharray: 1, 0;" class="arrowMarkerPath" d="M 1,1 l 9,9 M 10,1 l -9,9"/></marker><g class="root"><g class="clusters"/><g class="edgePaths"><path marker-end="url(#my-svg_flowchart-pointEnd)" style="fill:none;" class="edge-thickness-normal edge-pattern-solid flowchart-link LS-si LE-common" id="L-si-common-0" d="M123.164,100L123.164,75L436.601,31.734"/><path marker-end="url(#my-svg_flowchart-pointEnd)" style="fill:none;" class="edge-thickness-normal edge-pattern-solid flowchart-link LS-bi LE-common" id="L-bi-common-0" d="M623.145,100L623.145,75L533.896,42.608"/><path marker-end="url(#my-svg_flowchart-pointEnd)" style="fill:none;" class="edge-thickness-normal edge-pattern-solid flowchart-link LS-br LE-si" id="L-br-si-0" d="M164.008,200L133.164,175L129.203,155.197"/><path marker-end="url(#my-svg_flowchart-pointEnd)" style="fill:none;" class="edge-thickness-normal edge-pattern-solid flowchart-link LS-br LE-bi" id="L-br-bi-0" d="M227.889,200L260.926,175L515.535,139.854"/><path marker-end="url(#my-svg_flowchart-pointEnd)" style="fill:none;" class="edge-thickness-normal edge-pattern-solid flowchart-link LS-da LE-bi" id="L-da-bi-0" d="M880.721,200L880.721,175L730.707,145.88"/><path marker-end="url(#my-svg_flowchart-pointEnd)" style="fill:none;" class="edge-thickness-normal edge-pattern-solid flowchart-link LS-ide LE-si" id="L-ide-si-0" d="M51.477,300L51.477,275L51.477,225L51.477,175L82.973,153.032"/><path marker-end="url(#my-svg_flowchart-pointEnd)" style="fill:none;" class="edge-thickness-normal edge-pattern-solid flowchart-link LS-ide LE-br" id="L-ide-br-0" d="M72.555,310.299L123.164,275L154.661,253.032"/><path marker-end="url(#my-svg_flowchart-pointEnd)" style="fill:none;" class="edge-thickness-normal edge-pattern-solid flowchart-link LS-ifds LE-si" id="L-ifds-si-0" d="M347.613,300L342.613,275L342.613,225L342.613,175L238.056,151.177"/><path marker-end="url(#my-svg_flowchart-pointEnd)" style="fill:none;" class="edge-thickness-normal edge-pattern-solid flowchart-link LS-ifds LE-br" id="L-ifds-br-0" d="M378.316,312.262L453.502,275L308.43,246.956"/><path marker-end="url(#my-svg_flowchart-pointEnd)" style="fill:none;" class="edge-thickness-normal edge-pattern-solid flowchart-link LS-ai LE-br" id="L-ai-br-0" d="M603.295,300L603.295,275L308.487,238.911"/><path marker-end="url(#my-svg_flowchart-pointEnd)" style="fill:none;" class="edge-thickness-normal edge-pattern-solid flowchart-link LS-bc LE-da" id="L-bc-da-0" d="M880.721,300L880.721,275L880.721,255.3"/><path marker-end="url(#my-svg_flowchart-pointEnd)" style="fill:none;" class="edge-thickness-normal edge-pattern-solid flowchart-link LS-de LE-ai" id="L-de-ai-0" d="M603.295,400L603.295,375L603.295,355.3"/><path marker-end="url(#my-svg_flowchart-pointEnd)" style="fill:none;" class="edge-thickness-normal edge-pattern-solid flowchart-link LS-tac LE-ifds" id="L-tac-ifds-0" d="M357.613,400L352.613,375L352.613,355.3"/><path marker-end="url(#my-svg_flowchart-pointEnd)" style="fill:none;" class="edge-thickness-normal edge-pattern-solid flowchart-link LS-tac LE-ai" id="L-tac-ai-0" d="M418.058,400L473.502,375L533.453,351.905"/><path marker-end="url(#my-svg_flowchart-pointEnd)" style="fill:none;" class="edge-thickness-normal edge-pattern-solid flowchart-link LS-ll LE-tac" id="L-ll-tac-0" d="M302.383,500L302.383,475L328.42,453.385"/><path marker-end="url(#my-svg_flowchart-pointEnd)" style="fill:none;" class="edge-thickness-normal edge-pattern-solid flowchart-link LS-apk LE-br" id="L-apk-br-0" d="M202.053,600L194.852,575L194.852,525L194.852,475L194.852,425L194.852,375L194.852,325L194.852,275L194.852,255.3"/><path marker-end="url(#my-svg_flowchart-pointEnd)" style="fill:none;" class="edge-thickness-normal edge-pattern-solid flowchart-link LS-apk LE-ll" id="L-apk-ll-0" d="M232.551,612.492L302.383,575L302.383,555.3"/><path marker-end="url(#my-svg_flowchart-pointEnd)" style="fill:none;" class="edge-thickness-normal edge-pattern-solid flowchart-link LS-ba LE-ai" id="L-ba-ai-0" d="M802.284,400L733.848,375L673.521,351.896"/><path marker-end="url(#my-svg_flowchart-pointEnd)" style="fill:none;" class="edge-thickness-normal edge-pattern-solid flowchart-link LS-ba LE-bc" id="L-ba-bc-0" d="M875.721,400L880.721,375L880.721,355.3"/><path marker-end="url(#my-svg_flowchart-pointEnd)" style="fill:none;" class="edge-thickness-normal edge-pattern-solid flowchart-link LS-av LE-de" id="L-av-de-0" d="M603.295,500L603.295,475L603.295,455.3"/><path marker-end="url(#my-svg_flowchart-pointEnd)" style="fill:none;" class="edge-thickness-normal edge-pattern-solid flowchart-link LS-framework LE-tac" id="L-framework-tac-0" d="M551.143,611.022L416.74,575L416.74,525L416.74,475L393.57,453.596"/><path marker-end="url(#my-svg_flowchart-pointEnd)" style="fill:none;" class="edge-thickness-normal edge-pattern-solid flowchart-link LS-framework LE-av" id="L-framework-av-0" d="M603.295,608L603.295,575L603.295,555.3"/><path marker-end="url(#my-svg_flowchart-pointEnd)" style="fill:none;" class="edge-thickness-normal edge-pattern-solid flowchart-link LS-framework LE-ba" id="L-framework-ba-0" d="M655.447,615.249L870.721,575L870.721,525L870.721,475L870.721,455.3"/><path marker-end="url(#my-svg_flowchart-pointEnd)" style="fill:none;" class="edge-thickness-normal edge-pattern-solid flowchart-link LS-demos LE-framework" id="L-demos-framework-0" d="M504.727,708L504.727,675L565.055,644.398"/><path marker-end="url(#my-svg_flowchart-pointEnd)" style="fill:none;" class="edge-thickness-normal edge-pattern-solid flowchart-link LS-bp LE-framework" id="L-bp-framework-0" d="M637.34,700L637.34,675L617.853,646.381"/><path marker-end="url(#my-svg_flowchart-pointEnd)" style="fill:none;" class="edge-thickness-normal edge-pattern-solid flowchart-link LS-hermes LE-framework" id="L-hermes-framework-0" d="M772.984,700L772.984,675L660.531,641.865"/></g><g class="edgeLabels"><g class="edgeLabel"><g transform="translate(0, 0)" class="label"><rect height="0" width="0" ry="0" rx="0"/><text style=""><tspan class="row" x="0" dy="1em" xml:space="preserve"/></text></g></g><g class="edgeLabel"><g transform="translate(0, 0)" class="label"><rect height="0" width="0" ry="0" rx="0"/><text style=""><tspan class="row" x="0" dy="1em" xml:space="preserve"/></text></g></g><g class="edgeLabel"><g transform="translate(0, 0)" class="label"><rect height="0" width="0" ry="0" rx="0"/><text style=""><tspan class="row" x="0" dy="1em" xml:space="preserve"/></text></g></g><g class="edgeLabel"><g transform="translate(0, 0)" class="label"><rect height="0" width="0" ry="0" rx="0"/><text style=""><tspan class="row" x="0" dy="1em" xml:space="preserve"/></text></g></g><g class="edgeLabel"><g transform="translate(0, 0)" class="label"><rect height="0" width="0" ry="0" rx="0"/><text style=""><tspan class="row" x="0" dy="1em" xml:space="preserve"/></text></g></g><g class="edgeLabel"><g transform="translate(0, 0)" class="label"><rect height="0" width="0" ry="0" rx="0"/><text style=""><tspan class="row" x="0" dy="1em" xml:space="preserve"/></text></g></g><g class="edgeLabel"><g transform="translate(0, 0)" class="label"><rect height="0" width="0" ry="0" rx="0"/><text style=""><tspan class="row" x="0" dy="1em" xml:space="preserve"/></text></g></g><g class="edgeLabel"><g transform="translate(0, 0)" class="label"><rect height="0" width="0" ry="0" rx="0"/><text style=""><tspan class="row" x="0" dy="1em" xml:space="preserve"/></text></g></g><g class="edgeLabel"><g transform="translate(0, 0)" class="label"><rect height="0" width="0" ry="0" rx="0"/><text style=""><tspan class="row" x="0" dy="1em" xml:space="preserve"/></text></g></g><g class="edgeLabel"><g transform="translate(0, 0)" class="label"><rect height="0" width="0" ry="0" rx="0"/><text style=""><tspan class="row" x="0" dy="1em" xml:space="preserve"/></text></g></g><g class="edgeLabel"><g transform="translate(0, 0)" class="label"><rect height="0" width="0" ry="0" rx="0"/><text style=""><tspan class="row" x="0" dy="1em" xml:space="preserve"/></text></g></g><g class="edgeLabel"><g transform="translate(0, 0)" class="label"><rect height="0" width="0" ry="0" rx="0"/><text style=""><tspan class="row" x="0" dy="1em" xml:space="preserve"/></text></g></g><g class="edgeLabel"><g transform="translate(0, 0)" class="label"><rect height="0" width="0" ry="0" rx="0"/><text style=""><tspan class="row" x="0" dy="1em" xml:space="preserve"/></text></g></g><g class="edgeLabel"><g transform="translate(0, 0)" class="label"><rect height="0" width="0" ry="0" rx="0"/><text style=""><tspan class="row" x="0" dy="1em" xml:space="preserve"/></text></g></g><g class="edgeLabel"><g transform="translate(0, 0)" class="label"><rect height="0" width="0" ry="0" rx="0"/><text style=""><tspan class="row" x="0" dy="1em" xml:space="preserve"/></text></g></g><g class="edgeLabel"><g transform="translate(0, 0)" class="label"><rect height="0" width="0" ry="0" rx="0"/><text style=""><tspan class="row" x="0" dy="1em" xml:space="preserve"/></text></g></g><g class="edgeLabel"><g transform="translate(0, 0)" class="label"><rect height="0" width="0" ry="0" rx="0"/><text style=""><tspan class="row" x="0" dy="1em" xml:space="preserve"/></text></g></g><g class="edgeLabel"><g transform="translate(0, 0)" class="label"><rect height="0" width="0" ry="0" rx="0"/><text style=""><tspan class="row" x="0" dy="1em" xml:space="preserve"/></text></g></g><g class="edgeLabel"><g transform="translate(0, 0)" class="label"><rect height="0" width="0" ry="0" rx="0"/><text style=""><tspan class="row" x="0" dy="1em" xml:space="preserve"/></text></g></g><g class="edgeLabel"><g transform="translate(0, 0)" class="label"><rect height="0" width="0" ry="0" rx="0"/><text style=""><tspan class="row" x="0" dy="1em" xml:space="preserve"/></text></g></g><g class="edgeLabel"><g transform="translate(0, 0)" class="label"><rect height="0" width="0" ry="0" rx="0"/><text style=""><tspan class="row" x="0" dy="1em" xml:space="preserve"/></text></g></g><g class="edgeLabel"><g transform="translate(0, 0)" class="label"><rect height="0" width="0" ry="0" rx="0"/><text style=""><tspan class="row" x="0" dy="1em" xml:space="preserve"/></text></g></g><g class="edgeLabel"><g transform="translate(0, 0)" class="label"><rect height="0" width="0" ry="0" rx="0"/><text style=""><tspan class="row" x="0" dy="1em" xml:space="preserve"/></text></g></g><g class="edgeLabel"><g transform="translate(0, 0)" class="label"><rect height="0" width="0" ry="0" rx="0"/><text style=""><tspan class="row" x="0" dy="1em" xml:space="preserve"/></text></g></g><g class="edgeLabel"><g transform="translate(0, 0)" class="label"><rect height="0" width="0" ry="0" rx="0"/><text style=""><tspan class="row" x="0" dy="1em" xml:space="preserve"/></text></g></g><g class="edgeLabel"><g transform="translate(0, 0)" class="label"><rect height="0" width="0" ry="0" rx="0"/><text style=""><tspan class="row" x="0" dy="1em" xml:space="preserve"/></text></g></g></g><g class="nodes"><g transform="translate(485.3828125, 25)" data-id="common" data-node="true" id="flowchart-common-0" class="node default default flowchart-label"><rect height="50" width="87.0625" y="-25" x="-43.53125" ry="0" rx="0" style="fill:#9cbecc;" class="basic label-container"/><g transform="translate(0, -17.5)" style="color:black;" class="label"><rect/><text style="fill:black;"><tspan class="row" x="0" dy="1em" xml:space="preserve">Common</tspan><tspan class="row" x="0" dy="1em" xml:space="preserve">common</tspan></text></g></g><g transform="translate(123.1640625, 125)" data-id="si" data-node="true" id="flowchart-si-1" class="node default default flowchart-label"><rect height="50" width="246.328125" y="-25" x="-123.1640625" ry="0" rx="0" style="" class="basic label-container"/><g transform="translate(0, -17.5)" style="" class="label"><rect/><text style=""><tspan class="row" x="0" dy="1em" xml:space="preserve">Static Analysis Infrastructure</tspan><tspan class="row" x="0" dy="1em" xml:space="preserve">si</tspan></text></g></g><g transform="translate(623.14453125, 125)" data-id="bi" data-node="true" id="flowchart-bi-2" class="node default default flowchart-label"><rect height="50" width="204.71875" y="-25" x="-102.359375" ry="0" rx="0" style="" class="basic label-container"/><g transform="translate(0, -17.5)" style="" class="label"><rect/><text style=""><tspan class="row" x="0" dy="1em" xml:space="preserve">Bytecode Infrastructure</tspan><tspan class="row" x="0" dy="1em" xml:space="preserve">bi</tspan></text></g></g><g transform="translate(194.8515625, 225)" data-id="br" data-node="true" id="flowchart-br-3" class="node default default flowchart-label"><rect height="50" width="216.75" y="-25" x="-108.375" ry="0" rx="0" style="" class="basic label-container"/><g transform="translate(0, -17.5)" style="" class="label"><rect/><text style=""><tspan class="row" x="0" dy="1em" xml:space="preserve">Bytecode Representation</tspan><tspan class="row" x="0" dy="1em" xml:space="preserve">br</tspan></text></g></g><g transform="translate(880.720703125, 225)" data-id="da" data-node="true" id="flowchart-da-4" class="node default default flowchart-label"><rect height="50" width="203.6875" y="-25" x="-101.84375" ry="0" rx="0" style="" class="basic label-container"/><g transform="translate(0, -17.5)" style="" class="label"><rect/><text style=""><tspan class="row" x="0" dy="1em" xml:space="preserve">Bytecode Disassembler</tspan><tspan class="row" x="0" dy="1em" xml:space="preserve">da</tspan></text></g></g><g transform="translate(51.4765625, 325)" data-id="ide" data-node="true" id="flowchart-ide-5" class="node default default flowchart-label"><rect height="50" width="42.15625" y="-25" x="-21.078125" ry="0" rx="0" style="" class="basic label-container"/><g transform="translate(0, -17.5)" style="" class="label"><rect/><text style=""><tspan class="row" x="0" dy="1em" xml:space="preserve">IDE</tspan><tspan class="row" x="0" dy="1em" xml:space="preserve">ide</tspan></text></g></g><g transform="translate(352.61328125, 325)" data-id="ifds" data-node="true" id="flowchart-ifds-6" class="node default default flowchart-label"><rect height="50" width="51.40625" y="-25" x="-25.703125" ry="0" rx="0" style="" class="basic label-container"/><g transform="translate(0, -17.5)" style="" class="label"><rect/><text style=""><tspan class="row" x="0" dy="1em" xml:space="preserve">IFDS</tspan><tspan class="row" x="0" dy="1em" xml:space="preserve">ifds</tspan></text></g></g><g transform="translate(603.294921875, 325)" data-id="ai" data-node="true" id="flowchart-ai-7" class="node default default flowchart-label"><rect height="50" width="292.1484375" y="-25" x="-146.07421875" ry="0" rx="0" style="" class="basic label-container"/><g transform="translate(0, -17.5)" style="" class="label"><rect/><text style=""><tspan class="row" x="0" dy="1em" xml:space="preserve">Abstract Interpretation Framework</tspan><tspan class="row" x="0" dy="1em" xml:space="preserve">ai</tspan></text></g></g><g transform="translate(880.720703125, 325)" data-id="bc" data-node="true" id="flowchart-bc-8" class="node default default flowchart-label"><rect height="50" width="155.34375" y="-25" x="-77.671875" ry="0" rx="0" style="" class="basic label-container"/><g transform="translate(0, -17.5)" style="" class="label"><rect/><text style=""><tspan class="row" x="0" dy="1em" xml:space="preserve">Bytecode Creator</tspan><tspan class="row" x="0" dy="1em" xml:space="preserve">bc</tspan></text></g></g><g transform="translate(362.61328125, 425)" data-id="tac" data-node="true" id="flowchart-tac-9" class="node default default flowchart-label"><rect height="50" width="176.6875" y="-25" x="-88.34375" ry="0" rx="0" style="" class="basic label-container"/><g transform="translate(0, -17.5)" style="" class="label"><rect/><text style=""><tspan class="row" x="0" dy="1em" xml:space="preserve">Three Address Code</tspan><tspan class="row" x="0" dy="1em" xml:space="preserve">tac</tspan></text></g></g><g transform="translate(603.294921875, 425)" data-id="de" data-node="true" id="flowchart-de-10" class="node default default flowchart-label"><rect height="50" width="202.484375" y="-25" x="-101.2421875" ry="0" rx="0" style="" class="basic label-container"/><g transform="translate(0, -17.5)" style="" class="label"><rect/><text style=""><tspan class="row" x="0" dy="1em" xml:space="preserve">Dependency Extraction</tspan><tspan class="row" x="0" dy="1em" xml:space="preserve">de</tspan></text></g></g><g transform="translate(870.720703125, 425)" data-id="ba" data-node="true" id="flowchart-ba-11" class="node default default flowchart-label"><rect height="50" width="179.7265625" y="-25" x="-89.86328125" ry="0" rx="0" style="" class="basic label-container"/><g transform="translate(0, -17.5)" style="" class="label"><rect/><text style=""><tspan class="row" x="0" dy="1em" xml:space="preserve">Bytecode Assembler</tspan><tspan class="row" x="0" dy="1em" xml:space="preserve">ba</tspan></text></g></g><g transform="translate(302.3828125, 525)" data-id="ll" data-node="true" id="flowchart-ll-12" class="node default default flowchart-label"><rect height="50" width="55.828125" y="-25" x="-27.9140625" ry="0" rx="0" style="" class="basic label-container"/><g transform="translate(0, -17.5)" style="" class="label"><rect/><text style=""><tspan class="row" x="0" dy="1em" xml:space="preserve">LLVM</tspan><tspan class="row" x="0" dy="1em" xml:space="preserve">ll</tspan></text></g></g><g transform="translate(209.25390625, 625)" data-id="apk" data-node="true" id="flowchart-apk-13" class="node default default flowchart-label"><rect height="50" width="46.59375" y="-25" x="-23.296875" ry="0" rx="0" style="" class="basic label-container"/><g transform="translate(0, -17.5)" style="" class="label"><rect/><text style=""><tspan class="row" x="0" dy="1em" xml:space="preserve">APK</tspan><tspan class="row" x="0" dy="1em" xml:space="preserve">apk</tspan></text></g></g><g transform="translate(603.294921875, 525)" data-id="av" data-node="true" id="flowchart-av-14" class="node default default flowchart-label"><rect height="50" width="197.046875" y="-25" x="-98.5234375" ry="0" rx="0" style="" class="basic label-container"/><g transform="translate(0, -17.5)" style="" class="label"><rect/><text style=""><tspan class="row" x="0" dy="1em" xml:space="preserve">Architecture Validation</tspan><tspan class="row" x="0" dy="1em" xml:space="preserve">av</tspan></text></g></g><g transform="translate(603.294921875, 625)" data-id="framework" data-node="true" id="flowchart-framework-15" class="node default default flowchart-label"><rect height="34" width="104.3046875" y="-17" x="-52.15234375" ry="0" rx="0" style="fill:#c0ffc0;" class="basic label-container"/><g transform="translate(0, -9.5)" style="" class="label"><rect/><text style=""><tspan class="row" x="0" dy="1em" xml:space="preserve">Framework</tspan></text></g></g><g transform="translate(504.7265625, 725)" data-id="demos" data-node="true" id="flowchart-demos-16" class="node default default flowchart-label"><rect height="34" width="70.875" y="-17" x="-35.4375" ry="0" rx="0" style="" class="basic label-container"/><g transform="translate(0, -9.5)" style="" class="label"><rect/><text style=""><tspan class="row" x="0" dy="1em" xml:space="preserve">Demos</tspan></text></g></g><g transform="translate(637.33984375, 725)" data-id="bp" data-node="true" id="flowchart-bp-17" class="node default default flowchart-label"><rect height="50" width="94.3515625" y="-25" x="-47.17578125" ry="0" rx="0" style="fill:#ffd7cf;" class="basic label-container"/><g transform="translate(0, -17.5)" style="" class="label"><rect/><text style=""><tspan class="row" x="0" dy="1em" xml:space="preserve">BugPicker</tspan><tspan class="row" x="0" dy="1em" xml:space="preserve">bp</tspan></text></g></g><g transform="translate(772.984375, 725)" data-id="hermes" data-node="true" id="flowchart-hermes-18" class="node default default flowchart-label"><rect height="50" width="76.9375" y="-25" x="-38.46875" ry="0" rx="0" style="fill:#ffd7cf;" class="basic label-container"/><g transform="translate(0, -17.5)" style="" class="label"><rect/><text style=""><tspan class="row" x="0" dy="1em" xml:space="preserve">Hermes</tspan><tspan class="row" x="0" dy="1em" xml:space="preserve">hermes</tspan></text></g></g></g></g></g></svg>