<svg aria-roledescription="flowchart-v2" role="graphics-document document" viewBox="-8 -8 999.640625 766" height="766" xmlns:xlink="http://www.w3.org/1999/xlink" xmlns="http://www.w3.org/2000/svg" width="999.640625" id="my-svg" style="background-color: white;"><style>#my-svg{font-family:"trebuchet ms",verdana,arial,sans-serif;font-size:16px;fill:#333;}#my-svg .error-icon{fill:#552222;}#my-svg .error-text{fill:#552222;stroke:#552222;}#my-svg .edge-thickness-normal{stroke-width:2px;}#my-svg .edge-thickness-thick{stroke-width:3.5px;}#my-svg .edge-pattern-solid{stroke-dasharray:0;}#my-svg .edge-pattern-dashed{stroke-dasharray:3;}#my-svg .edge-pattern-dotted{stroke-dasharray:2;}#my-svg .marker{fill:#333333;stroke:#333333;}#my-svg .marker.cross{stroke:#333333;}#my-svg svg{font-family:"trebuchet ms",verdana,arial,sans-serif;font-size:16px;}#my-svg .label{font-family:"trebuchet ms",verdana,arial,sans-serif;color:#333;}#my-svg .cluster-label text{fill:#333;}#my-svg .cluster-label span,#my-svg p{color:#333;}#my-svg .label text,#my-svg span,#my-svg p{fill:#333;color:#333;}#my-svg .node rect,#my-svg .node circle,#my-svg .node ellipse,#my-svg .node polygon,#my-svg .node path{fill:#ECECFF;stroke:#9370DB;stroke-width:1px;}#my-svg .flowchart-label text{text-anchor:middle;}#my-svg .node .katex path{fill:#000;stroke:#000;stroke-width:1px;}#my-svg .node .label{text-align:center;}#my-svg .node.clickable{cursor:pointer;}#my-svg .arrowheadPath{fill:#333333;}#my-svg .edgePath .path{stroke:#333333;stroke-width:2.0px;}#my-svg .flowchart-link{stroke:#333333;fill:none;}#my-svg .edgeLabel{background-color:#e8e8e8;text-align:center;}#my-svg .edgeLabel rect{opacity:0.5;background-color:#e8e8e8;fill:#e8e8e8;}#my-svg .labelBkg{background-color:rgba(232, 232, 232, 0.5);}#my-svg .cluster rect{fill:#ffffde;stroke:#aaaa33;stroke-width:1px;}#my-svg .cluster text{fill:#333;}#my-svg .cluster span,#my-svg p{color:#333;}#my-svg div.mermaidTooltip{position:absolute;text-align:center;max-width:200px;padding:2px;font-family:"trebuchet ms",verdana,arial,sans-serif;font-size:12px;background:hsl(80, 100%, 96.2745098039%);border:1px solid #aaaa33;border-radius:2px;pointer-events:none;z-index:100;}#my-svg .flowchartTitleText{text-anchor:middle;font-size:18px;fill:#333;}#my-svg :root{--mermaid-font-family:"trebuchet ms",verdana,arial,sans-serif;}</style><g><marker orient="auto" markerHeight="12" markerWidth="12" markerUnits="userSpaceOnUse" refY="5" refX="6" viewBox="0 0 10 10" class="marker flowchart" id="my-svg_flowchart-pointEnd"><path style="stroke-width: 1; stroke-dasharray: 1, 0;" class="arrowMarkerPath" d="M 0 0 L 10 5 L 0 10 z"/></marker><marker orient="auto" markerHeight="12" markerWidth="12" markerUnits="userSpaceOnUse" refY="5" refX="4.5" viewBox="0 0 10 10" class="marker flowchart" id="my-svg_flowchart-pointStart"><path style="stroke-width: 1; stroke-dasharray: 1, 0;" class="arrowMarkerPath" d="M 0 5 L 10 10 L 10 0 z"/></marker><marker orient="auto" markerHeight="11" markerWidth="11" markerUnits="userSpaceOnUse" refY="5" refX="11" viewBox="0 0 10 10" class="marker flowchart" id="my-svg_flowchart-circleEnd"><circle style="stroke-width: 1; stroke-dasharray: 1, 0;" class="arrowMarkerPath" r="5" cy="5" cx="5"/></marker><marker orient="auto" markerHeight="11" markerWidth="11" markerUnits="userSpaceOnUse" refY="5" refX="-1" viewBox="0 0 10 10" class="marker flowchart" id="my-svg_flowchart-circleStart"><circle style="stroke-width: 1; stroke-dasharray: 1, 0;" class="arrowMarkerPath" r="5" cy="5" cx="5"/></marker><marker orient="auto" markerHeight="11" markerWidth="11" markerUnits="userSpaceOnUse" refY="5.2" refX="12" viewBox="0 0 11 11" class="marker cross flowchart" id="my-svg_flowchart-crossEnd"><path style="stroke-width: 2; stroke-dasharray: 1, 0;" class="arrowMarkerPath" d="M 1,1 l 9,9 M 10,1 l -9,9"/></marker><marker orient="auto" markerHeight="11" markerWidth="11" markerUnits="userSpaceOnUse" refY="5.2" refX="-1" viewBox="0 0 11 11" class="marker cross flowchart" id="my-svg_flowchart-crossStart"><path style="stroke-width: 2; stroke-dasharray: 1, 0;" class="arrowMarkerPath" d="M 1,1 l 9,9 M 10,1 l -9,9"/></marker><g class="root"><g class="clusters"/><g class="edgePaths"><path marker-end="url(#my-svg_flowchart-pointEnd)" style="fill:none;" class="edge-thickness-normal edge-pattern-solid flowchart-link LS-si LE-common" id="L-si-common-0" d="M187.008,100L187.008,75L470.103,32.348"/><path marker-end="url(#my-svg_flowchart-pointEnd)" style="fill:none;" class="edge-thickness-normal edge-pattern-solid flowchart-link LS-bi LE-common" id="L-bi-common-0" d="M656.637,100L656.637,75L567.388,42.608"/><path marker-end="url(#my-svg_flowchart-pointEnd)" style="fill:none;" class="edge-thickness-normal edge-pattern-solid flowchart-link LS-br LE-si" id="L-br-si-0" d="M180.566,200L149.723,175L165.197,154.249"/><path marker-end="url(#my-svg_flowchart-pointEnd)" style="fill:none;" class="edge-thickness-normal edge-pattern-solid flowchart-link LS-br LE-bi" id="L-br-bi-0" d="M242.254,200L273.098,175L549.022,139.029"/><path marker-end="url(#my-svg_flowchart-pointEnd)" style="fill:none;" class="edge-thickness-normal edge-pattern-solid flowchart-link LS-da LE-bi" id="L-da-bi-0" d="M881.797,200L881.797,175L764.17,148.879"/><path marker-end="url(#my-svg_flowchart-pointEnd)" style="fill:none;" class="edge-thickness-normal edge-pattern-solid flowchart-link LS-ide LE-si" id="L-ide-si-0" d="M359.785,300L354.785,275L354.785,225L354.785,175L275.976,151.514"/><path marker-end="url(#my-svg_flowchart-pointEnd)" style="fill:none;" class="edge-thickness-normal edge-pattern-solid flowchart-link LS-ide LE-br" id="L-ide-br-0" d="M385.863,314.439L464.578,275L324.985,247.431"/><path marker-end="url(#my-svg_flowchart-pointEnd)" style="fill:none;" class="edge-thickness-normal edge-pattern-solid flowchart-link LS-ifds LE-si" id="L-ifds-si-0" d="M89.617,300.129L63.648,275L63.648,225L63.648,175L120.416,151.991"/><path marker-end="url(#my-svg_flowchart-pointEnd)" style="fill:none;" class="edge-thickness-normal edge-pattern-solid flowchart-link LS-ifds LE-br" id="L-ifds-br-0" d="M141.023,311.625L211.41,275L211.41,255.3"/><path marker-end="url(#my-svg_flowchart-pointEnd)" style="fill:none;" class="edge-thickness-normal edge-pattern-solid flowchart-link LS-ai LE-br" id="L-ai-br-0" d="M604.371,300L604.371,275L325.043,239.459"/><path marker-end="url(#my-svg_flowchart-pointEnd)" style="fill:none;" class="edge-thickness-normal edge-pattern-solid flowchart-link LS-bc LE-da" id="L-bc-da-0" d="M881.797,300L881.797,275L881.797,255.3"/><path marker-end="url(#my-svg_flowchart-pointEnd)" style="fill:none;" class="edge-thickness-normal edge-pattern-solid flowchart-link LS-de LE-ai" id="L-de-ai-0" d="M604.371,400L604.371,375L604.371,355.3"/><path marker-end="url(#my-svg_flowchart-pointEnd)" style="fill:none;" class="edge-thickness-normal edge-pattern-solid flowchart-link LS-tac LE-ifds" id="L-tac-ifds-0" d="M203.881,400.031L115.32,375L115.32,355.3"/><path marker-end="url(#my-svg_flowchart-pointEnd)" style="fill:none;" class="edge-thickness-normal edge-pattern-solid flowchart-link LS-tac LE-ide" id="L-tac-ide-0" d="M328.505,400L364.785,375L364.785,355.3"/><path marker-end="url(#my-svg_flowchart-pointEnd)" style="fill:none;" class="edge-thickness-normal edge-pattern-solid flowchart-link LS-tac LE-ai" id="L-tac-ai-0" d="M380.568,402.036L484.578,375L539.584,352.041"/><path marker-end="url(#my-svg_flowchart-pointEnd)" style="fill:none;" class="edge-thickness-normal edge-pattern-solid flowchart-link LS-ll LE-tac" id="L-ll-tac-0" d="M116.426,500L116.426,475L199.227,451.45"/><path marker-end="url(#my-svg_flowchart-pointEnd)" style="fill:none;" class="edge-thickness-normal edge-pattern-solid flowchart-link LS-apk LE-br" id="L-apk-br-0" d="M23.297,600L23.297,575L23.297,525L23.297,475L23.297,425L23.297,375L23.297,325L23.297,275L112.231,251.361"/><path marker-end="url(#my-svg_flowchart-pointEnd)" style="fill:none;" class="edge-thickness-normal edge-pattern-solid flowchart-link LS-apk LE-ll" id="L-apk-ll-0" d="M46.594,612.492L116.426,575L116.426,555.3"/><path marker-end="url(#my-svg_flowchart-pointEnd)" style="fill:none;" class="edge-thickness-normal edge-pattern-solid flowchart-link LS-ba LE-ai" id="L-ba-ai-0" d="M803.36,400L734.924,375L674.597,351.896"/><path marker-end="url(#my-svg_flowchart-pointEnd)" style="fill:none;" class="edge-thickness-normal edge-pattern-solid flowchart-link LS-ba LE-bc" id="L-ba-bc-0" d="M876.797,400L881.797,375L881.797,355.3"/><path marker-end="url(#my-svg_flowchart-pointEnd)" style="fill:none;" class="edge-thickness-normal edge-pattern-solid flowchart-link LS-av LE-de" id="L-av-de-0" d="M604.371,500L604.371,475L604.371,455.3"/><path marker-end="url(#my-svg_flowchart-pointEnd)" style="fill:none;" class="edge-thickness-normal edge-pattern-solid flowchart-link LS-framework LE-tac" id="L-framework-tac-0" d="M552.219,616.646L292.225,575L292.225,525L292.225,475L292.225,455.3"/><path marker-end="url(#my-svg_flowchart-pointEnd)" style="fill:none;" class="edge-thickness-normal edge-pattern-solid flowchart-link LS-framework LE-av" id="L-framework-av-0" d="M604.371,608L604.371,575L604.371,555.3"/><path marker-end="url(#my-svg_flowchart-pointEnd)" style="fill:none;" class="edge-thickness-normal edge-pattern-solid flowchart-link LS-framework LE-ba" id="L-framework-ba-0" d="M656.523,615.249L871.797,575L871.797,525L871.797,475L871.797,455.3"/><path marker-end="url(#my-svg_flowchart-pointEnd)" style="fill:none;" class="edge-thickness-normal edge-pattern-solid flowchart-link LS-demos LE-framework" id="L-demos-framework-0" d="M468.248,708L468.248,675L553.114,643.827"/><path marker-end="url(#my-svg_flowchart-pointEnd)" style="fill:none;" class="edge-thickness-normal edge-pattern-solid flowchart-link LS-bp LE-framework" id="L-bp-framework-0" d="M600.861,700L600.861,675L602.807,647.287"/><path marker-end="url(#my-svg_flowchart-pointEnd)" style="fill:none;" class="edge-thickness-normal edge-pattern-solid flowchart-link LS-hermes LE-framework" id="L-hermes-framework-0" d="M736.506,700L736.506,675L654.254,643.876"/></g><g class="edgeLabels"><g class="edgeLabel"><g transform="translate(0, 0)" class="label"><rect height="0" width="0" ry="0" rx="0"/><text style=""><tspan class="row" x="0" dy="1em" xml:space="preserve"/></text></g></g><g class="edgeLabel"><g transform="translate(0, 0)" class="label"><rect height="0" width="0" ry="0" rx="0"/><text style=""><tspan class="row" x="0" dy="1em" xml:space="preserve"/></text></g></g><g class="edgeLabel"><g transform="translate(0, 0)" class="label"><rect height="0" width="0" ry="0" rx="0"/><text style=""><tspan class="row" x="0" dy="1em" xml:space="preserve"/></text></g></g><g class="edgeLabel"><g transform="translate(0, 0)" class="label"><rect height="0" width="0" ry="0" rx="0"/><text style=""><tspan class="row" x="0" dy="1em" xml:space="preserve"/></text></g></g><g class="edgeLabel"><g transform="translate(0, 0)" class="label"><rect height="0" width="0" ry="0" rx="0"/><text style=""><tspan class="row" x="0" dy="1em" xml:space="preserve"/></text></g></g><g class="edgeLabel"><g transform="translate(0, 0)" class="label"><rect height="0" width="0" ry="0" rx="0"/><text style=""><tspan class="row" x="0" dy="1em" xml:space="preserve"/></text></g></g><g class="edgeLabel"><g transform="translate(0, 0)" class="label"><rect height="0" width="0" ry="0" rx="0"/><text style=""><tspan class="row" x="0" dy="1em" xml:space="preserve"/></text></g></g><g class="edgeLabel"><g transform="translate(0, 0)" class="label"><rect height="0" width="0" ry="0" rx="0"/><text style=""><tspan class="row" x="0" dy="1em" xml:space="preserve"/></text></g></g><g class="edgeLabel"><g transform="translate(0, 0)" class="label"><rect height="0" width="0" ry="0" rx="0"/><text style=""><tspan class="row" x="0" dy="1em" xml:space="preserve"/></text></g></g><g class="edgeLabel"><g transform="translate(0, 0)" class="label"><rect height="0" width="0" ry="0" rx="0"/><text style=""><tspan class="row" x="0" dy="1em" xml:space="preserve"/></text></g></g><g class="edgeLabel"><g transform="translate(0, 0)" class="label"><rect height="0" width="0" ry="0" rx="0"/><text style=""><tspan class="row" x="0" dy="1em" xml:space="preserve"/></text></g></g><g class="edgeLabel"><g transform="translate(0, 0)" class="label"><rect height="0" width="0" ry="0" rx="0"/><text style=""><tspan class="row" x="0" dy="1em" xml:space="preserve"/></text></g></g><g class="edgeLabel"><g transform="translate(0, 0)" class="label"><rect height="0" width="0" ry="0" rx="0"/><text style=""><tspan class="row" x="0" dy="1em" xml:space="preserve"/></text></g></g><g class="edgeLabel"><g transform="translate(0, 0)" class="label"><rect height="0" width="0" ry="0" rx="0"/><text style=""><tspan class="row" x="0" dy="1em" xml:space="preserve"/></text></g></g><g class="edgeLabel"><g transform="translate(0, 0)" class="label"><rect height="0" width="0" ry="0" rx="0"/><text style=""><tspan class="row" x="0" dy="1em" xml:space="preserve"/></text></g></g><g class="edgeLabel"><g transform="translate(0, 0)" class="label"><rect height="0" width="0" ry="0" rx="0"/><text style=""><tspan class="row" x="0" dy="1em" xml:space="preserve"/></text></g></g><g class="edgeLabel"><g transform="translate(0, 0)" class="label"><rect height="0" width="0" ry="0" rx="0"/><text style=""><tspan class="row" x="0" dy="1em" xml:space="preserve"/></text></g></g><g class="edgeLabel"><g transform="translate(0, 0)" class="label"><rect height="0" width="0" ry="0" rx="0"/><text style=""><tspan class="row" x="0" dy="1em" xml:space="preserve"/></text></g></g><g class="edgeLabel"><g transform="translate(0, 0)" class="label"><rect height="0" width="0" ry="0" rx="0"/><text style=""><tspan class="row" x="0" dy="1em" xml:space="preserve"/></text></g></g><g class="edgeLabel"><g transform="translate(0, 0)" class="label"><rect height="0" width="0" ry="0" rx="0"/><text style=""><tspan class="row" x="0" dy="1em" xml:space="preserve"/></text></g></g><g class="edgeLabel"><g transform="translate(0, 0)" class="label"><rect height="0" width="0" ry="0" rx="0"/><text style=""><tspan class="row" x="0" dy="1em" xml:space="preserve"/></text></g></g><g class="edgeLabel"><g transform="translate(0, 0)" class="label"><rect height="0" width="0" ry="0" rx="0"/><text style=""><tspan class="row" x="0" dy="1em" xml:space="preserve"/></text></g></g><g class="edgeLabel"><g transform="translate(0, 0)" class="label"><rect height="0" width="0" ry="0" rx="0"/><text style=""><tspan class="row" x="0" dy="1em" xml:space="preserve"/></text></g></g><g class="edgeLabel"><g transform="translate(0, 0)" class="label"><rect height="0" width="0" ry="0" rx="0"/><text style=""><tspan class="row" x="0" dy="1em" xml:space="preserve"/></text></g></g><g class="edgeLabel"><g transform="translate(0, 0)" class="label"><rect height="0" width="0" ry="0" rx="0"/><text style=""><tspan class="row" x="0" dy="1em" xml:space="preserve"/></text></g></g><g class="edgeLabel"><g transform="translate(0, 0)" class="label"><rect height="0" width="0" ry="0" rx="0"/><text style=""><tspan class="row" x="0" dy="1em" xml:space="preserve"/></text></g></g><g class="edgeLabel"><g transform="translate(0, 0)" class="label"><rect height="0" width="0" ry="0" rx="0"/><text style=""><tspan class="row" x="0" dy="1em" xml:space="preserve"/></text></g></g></g><g class="nodes"><g transform="translate(518.875, 25)" data-id="common" data-node="true" id="flowchart-common-0" class="node default default flowchart-label"><rect height="50" width="87.0625" y="-25" x="-43.53125" ry="0" rx="0" style="fill:#9cbecc;" class="basic label-container"/><g transform="translate(0, -17.5)" style="color:black;" class="label"><rect/><text style="fill:black;"><tspan class="row" x="0" dy="1em" xml:space="preserve">Common</tspan><tspan class="row" x="0" dy="1em" xml:space="preserve">common</tspan></text></g></g><g transform="translate(187.0078125, 125)" data-id="si" data-node="true" id="flowchart-si-1" class="node default default flowchart-label"><rect height="50" width="246.328125" y="-25" x="-123.1640625" ry="0" rx="0" style="" class="basic label-container"/><g transform="translate(0, -17.5)" style="" class="label"><rect/><text style=""><tspan class="row" x="0" dy="1em" xml:space="preserve">Static Analysis Infrastructure</tspan><tspan class="row" x="0" dy="1em" xml:space="preserve">si</tspan></text></g></g><g transform="translate(656.63671875, 125)" data-id="bi" data-node="true" id="flowchart-bi-2" class="node default default flowchart-label"><rect height="50" width="204.71875" y="-25" x="-102.359375" ry="0" rx="0" style="" class="basic label-container"/><g transform="translate(0, -17.5)" style="" class="label"><rect/><text style=""><tspan class="row" x="0" dy="1em" xml:space="preserve">Bytecode Infrastructure</tspan><tspan class="row" x="0" dy="1em" xml:space="preserve">bi</tspan></text></g></g><g transform="translate(211.41015625, 225)" data-id="br" data-node="true" id="flowchart-br-3" class="node default default flowchart-label"><rect height="50" width="216.75" y="-25" x="-108.375" ry="0" rx="0" style="" class="basic label-container"/><g transform="translate(0, -17.5)" style="" class="label"><rect/><text style=""><tspan class="row" x="0" dy="1em" xml:space="preserve">Bytecode Representation</tspan><tspan class="row" x="0" dy="1em" xml:space="preserve">br</tspan></text></g></g><g transform="translate(881.796875, 225)" data-id="da" data-node="true" id="flowchart-da-4" class="node default default flowchart-label"><rect height="50" width="203.6875" y="-25" x="-101.84375" ry="0" rx="0" style="" class="basic label-container"/><g transform="translate(0, -17.5)" style="" class="label"><rect/><text style=""><tspan class="row" x="0" dy="1em" xml:space="preserve">Bytecode Disassembler</tspan><tspan class="row" x="0" dy="1em" xml:space="preserve">da</tspan></text></g></g><g transform="translate(364.78515625, 325)" data-id="ide" data-node="true" id="flowchart-ide-5" class="node default default flowchart-label"><rect height="50" width="42.15625" y="-25" x="-21.078125" ry="0" rx="0" style="" class="basic label-container"/><g transform="translate(0, -17.5)" style="" class="label"><rect/><text style=""><tspan class="row" x="0" dy="1em" xml:space="preserve">IDE</tspan><tspan class="row" x="0" dy="1em" xml:space="preserve">ide</tspan></text></g></g><g transform="translate(115.3203125, 325)" data-id="ifds" data-node="true" id="flowchart-ifds-6" class="node default default flowchart-label"><rect height="50" width="51.40625" y="-25" x="-25.703125" ry="0" rx="0" style="" class="basic label-container"/><g transform="translate(0, -17.5)" style="" class="label"><rect/><text style=""><tspan class="row" x="0" dy="1em" xml:space="preserve">IFDS</tspan><tspan class="row" x="0" dy="1em" xml:space="preserve">ifds</tspan></text></g></g><g transform="translate(604.37109375, 325)" data-id="ai" data-node="true" id="flowchart-ai-7" class="node default default flowchart-label"><rect height="50" width="292.1484375" y="-25" x="-146.07421875" ry="0" rx="0" style="" class="basic label-container"/><g transform="translate(0, -17.5)" style="" class="label"><rect/><text style=""><tspan class="row" x="0" dy="1em" xml:space="preserve">Abstract Interpretation Framework</tspan><tspan class="row" x="0" dy="1em" xml:space="preserve">ai</tspan></text></g></g><g transform="translate(881.796875, 325)" data-id="bc" data-node="true" id="flowchart-bc-8" class="node default default flowchart-label"><rect height="50" width="155.34375" y="-25" x="-77.671875" ry="0" rx="0" style="" class="basic label-container"/><g transform="translate(0, -17.5)" style="" class="label"><rect/><text style=""><tspan class="row" x="0" dy="1em" xml:space="preserve">Bytecode Creator</tspan><tspan class="row" x="0" dy="1em" xml:space="preserve">bc</tspan></text></g></g><g transform="translate(292.224609375, 425)" data-id="tac" data-node="true" id="flowchart-tac-9" class="node default default flowchart-label"><rect height="50" width="176.6875" y="-25" x="-88.34375" ry="0" rx="0" style="" class="basic label-container"/><g transform="translate(0, -17.5)" style="" class="label"><rect/><text style=""><tspan class="row" x="0" dy="1em" xml:space="preserve">Three Address Code</tspan><tspan class="row" x="0" dy="1em" xml:space="preserve">tac</tspan></text></g></g><g transform="translate(604.37109375, 425)" data-id="de" data-node="true" id="flowchart-de-10" class="node default default flowchart-label"><rect height="50" width="202.484375" y="-25" x="-101.2421875" ry="0" rx="0" style="" class="basic label-container"/><g transform="translate(0, -17.5)" style="" class="label"><rect/><text style=""><tspan class="row" x="0" dy="1em" xml:space="preserve">Dependency Extraction</tspan><tspan class="row" x="0" dy="1em" xml:space="preserve">de</tspan></text></g></g><g transform="translate(871.796875, 425)" data-id="ba" data-node="true" id="flowchart-ba-11" class="node default default flowchart-label"><rect height="50" width="179.7265625" y="-25" x="-89.86328125" ry="0" rx="0" style="" class="basic label-container"/><g transform="translate(0, -17.5)" style="" class="label"><rect/><text style=""><tspan class="row" x="0" dy="1em" xml:space="preserve">Bytecode Assembler</tspan><tspan class="row" x="0" dy="1em" xml:space="preserve">ba</tspan></text></g></g><g transform="translate(116.42578125, 525)" data-id="ll" data-node="true" id="flowchart-ll-12" class="node default default flowchart-label"><rect height="50" width="55.828125" y="-25" x="-27.9140625" ry="0" rx="0" style="" class="basic label-container"/><g transform="translate(0, -17.5)" style="" class="label"><rect/><text style=""><tspan class="row" x="0" dy="1em" xml:space="preserve">LLVM</tspan><tspan class="row" x="0" dy="1em" xml:space="preserve">ll</tspan></text></g></g><g transform="translate(23.296875, 625)" data-id="apk" data-node="true" id="flowchart-apk-13" class="node default default flowchart-label"><rect height="50" width="46.59375" y="-25" x="-23.296875" ry="0" rx="0" style="" class="basic label-container"/><g transform="translate(0, -17.5)" style="" class="label"><rect/><text style=""><tspan class="row" x="0" dy="1em" xml:space="preserve">APK</tspan><tspan class="row" x="0" dy="1em" xml:space="preserve">apk</tspan></text></g></g><g transform="translate(604.37109375, 525)" data-id="av" data-node="true" id="flowchart-av-14" class="node default default flowchart-label"><rect height="50" width="197.046875" y="-25" x="-98.5234375" ry="0" rx="0" style="" class="basic label-container"/><g transform="translate(0, -17.5)" style="" class="label"><rect/><text style=""><tspan class="row" x="0" dy="1em" xml:space="preserve">Architecture Validation</tspan><tspan class="row" x="0" dy="1em" xml:space="preserve">av</tspan></text></g></g><g transform="translate(604.37109375, 625)" data-id="framework" data-node="true" id="flowchart-framework-15" class="node default default flowchart-label"><rect height="34" width="104.3046875" y="-17" x="-52.15234375" ry="0" rx="0" style="fill:#c0ffc0;" class="basic label-container"/><g transform="translate(0, -9.5)" style="" class="label"><rect/><text style=""><tspan class="row" x="0" dy="1em" xml:space="preserve">Framework</tspan></text></g></g><g transform="translate(468.248046875, 725)" data-id="demos" data-node="true" id="flowchart-demos-16" class="node default default flowchart-label"><rect height="34" width="70.875" y="-17" x="-35.4375" ry="0" rx="0" style="" class="basic label-container"/><g transform="translate(0, -9.5)" style="" class="label"><rect/><text style=""><tspan class="row" x="0" dy="1em" xml:space="preserve">Demos</tspan></text></g></g><g transform="translate(600.861328125, 725)" data-id="bp" data-node="true" id="flowchart-bp-17" class="node default default flowchart-label"><rect height="50" width="94.3515625" y="-25" x="-47.17578125" ry="0" rx="0" style="fill:#ffd7cf;" class="basic label-container"/><g transform="translate(0, -17.5)" style="" class="label"><rect/><text style=""><tspan class="row" x="0" dy="1em" xml:space="preserve">BugPicker</tspan><tspan class="row" x="0" dy="1em" xml:space="preserve">bp</tspan></text></g></g><g transform="translate(736.505859375, 725)" data-id="hermes" data-node="true" id="flowchart-hermes-18" class="node default default flowchart-label"><rect height="50" width="76.9375" y="-25" x="-38.46875" ry="0" rx="0" style="fill:#ffd7cf;" class="basic label-container"/><g transform="translate(0, -17.5)" style="" class="label"><rect/><text style=""><tspan class="row" x="0" dy="1em" xml:space="preserve">Hermes</tspan><tspan class="row" x="0" dy="1em" xml:space="preserve">hermes</tspan></text></g></g></g></g></g></svg>