<?xml version="1.0" encoding="UTF-8"?><svg id="Layer_1" xmlns="http://www.w3.org/2000/svg" viewBox="0 0 839.72 842.82"><defs><style>.cls-1{fill:#f6f6f5;}.cls-1,.cls-2,.cls-3,.cls-4,.cls-5,.cls-6,.cls-7,.cls-8,.cls-9,.cls-10,.cls-11,.cls-12,.cls-13,.cls-14{stroke-width:0px;}.cls-2{fill:#35353c;}.cls-3{fill:#393a41;}.cls-4{fill:#d0e8e1;}.cls-5{fill:#a99eb1;}.cls-6{fill:#b2e7e3;}.cls-7{fill:#8fdad5;}.cls-8{fill:#c27b7c;}.cls-9{fill:#7bc8bf;}.cls-10{fill:#99727d;}.cls-11{fill:#e4997e;}.cls-12{fill:#eebe8f;}.cls-13{fill:#eeece3;}.cls-14{fill:#f4dcb8;}</style></defs><path class="cls-3" d="M169.98,550.28c-.16-6.4-.47-12.8-.47-19.2-.08-89.39.18-178.78-.34-268.17-.16-27.92,10.97-47.7,35.42-61.31,63.85-35.55,127.38-71.67,190.98-107.65,18.12-10.25,36.35-10.83,54.39-.47,35.91,20.62,71.61,41.59,107.4,62.43,27.05,15.75,53.92,31.81,81.19,47.16,21.97,12.37,32.17,30.24,31.98,55.72-.57,75.01-.15,150.02-.14,225.03,0,1.93-.2,3.87-.31,5.8-5.11-.94-7.24-3.61-5.88-8.98,2.47-9.79-.36-11.55-8.8-12.02-.08-2.5-.23-4.99-.24-7.49-.06-19.26-.08-38.51-.12-57.77,0-17.06.02-34.12.03-51.18-1.64-3.84-.43-7.93-1.09-11.86.1-.76.2-1.53.3-2.29,1.85-2.12.86-4.55.73-6.88v-3.74c.24-.32.25-.64.02-.97.48-17.93.46-35.86,0-53.79-.01-6.99.16-13.98-.07-20.96-.39-11.56-5.37-20.95-14.33-28.17-3.47-2.8-7.09-5.47-10.91-7.77-16.45-9.88-32.95-19.68-49.51-29.37-44.76-26.17-89.74-51.99-134.26-78.55-15.41-9.19-29.64-9.24-44.87-.28-19.88,11.7-40.11,22.8-60.18,34.17-43.51,24.66-87,49.36-130.52,73.99-17.21,9.74-24.96,24.83-25.34,44.18-.15.75-.45,1.51-.44,2.26.16,30.34.34,60.67.52,91,.02,14.75.03,29.49.05,44.24-.06,8.97-.11,17.94-.17,26.91.03,21.39.04,42.78.12,64.17,0,2.47-.47,5.02.62,7.42.04,5.7.08,11.41.13,17.11-.19,10.51-.38,21.01-.57,31.52-1.57-.8.37-4.37-3.13-3.77-2.71.46-3.96,1.72-4.33,4.51-1.12,8.23-1.22,8.21-7.84,5.01Z"/><path class="cls-2" d="M655.41,468.61c8.44.46,11.28,2.23,8.8,12.02-1.36,5.38.77,8.05,5.88,8.98,0,1.93,0,3.87,0,5.8-1.8.26-5.11-.17-4.44,2.17.83,2.87-.71,4.79-.87,7.15-.24,3.64,1.16,6.06,5.3,5.88.02,18.28.05,36.56.07,54.83-.08.11-.22.23-.21.34.03.25.14.49.21.74.02,2.36.04,4.72.06,7.08-.08.11-.24.24-.22.34.04.26.15.5.23.75.41,24.2-7.33,44.66-27.65,59.11-20.91,14.87-43.21,27.55-65.28,40.57-40.13,23.67-79.94,47.88-120.57,70.71-3.22,1.81-6.52,3.46-9.79,5.16-17.44,9.06-34.73,8.93-51.66-1.2-24.01-14.37-47.95-28.84-71.85-43.4-37-22.55-73.92-45.23-110.91-67.81-15.26-9.32-27.88-21.06-35.39-37.63-1.68-3.71-3.52-7.37-3.96-11.5.05-1.25-.09-2.45-.97-3.45-.06-.41-.13-.82-.19-1.23.03-1.59.15-3.19-.88-4.58-1.58-9.68-1.49-19.42-1.14-29.18,6.61,3.21,6.72,3.22,7.83-5.01.38-2.79,1.62-4.05,4.33-4.51,3.51-.6,1.56,2.97,3.13,3.77,0,0-.07,0-.07,0-.14.11-.4.27-.39.31.12.28.3.53.46.79.2.34.21.69.03,1.04-.14.1-.43.25-.41.3.09.26.25.5.38.75l-.25-.04c.15.42.3.84.45,1.26.07,2.79.14,5.58.21,8.37-.92,1.21-.84,2.35.22,3.43l.04.14.13.53c.32.56.64,1.12.97,1.68-.07.4-.13.81-.2,1.21-.05.13-.17.29-.13.39.09.25.26.47.4.7l.02.06c.29.71.57,1.43.86,2.15,2.97,9.04,5.74,18.12,11.44,26.01,8.04,11.14,18.81,19.06,30.25,26.14,57.52,35.61,115.23,70.92,172.62,106.75,14.19,8.86,26.93,8.97,41.22.07,34.81-21.69,70.22-42.4,105.22-63.79,27.86-17.03,56.32-33.08,83.55-51.15,15.29-10.15,21.23-25.13,22.13-42.72.17-.33.15-.65-.05-.96l.09-.09c1.17-1.95.8-4.14.83-6.23.14-9.27.19-18.53.28-27.8.07-.11.21-.23.19-.33-.03-.24-.13-.47-.2-.71,0-4.32.01-8.64.02-12.96,1.31-1.15,2.73-2.3,0-3.43,0-1.96,0-3.93,0-5.89,1.31-1.14,2.75-2.28,0-3.44-.19-7.39-.39-14.78-.58-22.16l.37.03c1.42-1.17,3.1-2.35,0-3.52,0-4.28.02-8.55.03-12.83Z"/><path class="cls-3" d="M670.09,510.61c-4.14.18-5.55-2.24-5.3-5.88.16-2.36,1.7-4.27.87-7.15-.68-2.34,2.63-1.91,4.44-2.17.51,5.07.53,10.13,0,15.2Z"/><path class="cls-3" d="M171.13,579.45c1.03,1.38.91,2.99.88,4.58-.83-1.42-1.16-2.94-.88-4.58Z"/><path class="cls-3" d="M172.21,585.26c.88.99,1.01,2.2.97,3.45-.79-1.02-1.14-2.16-.97-3.45Z"/><path class="cls-3" d="M670.16,566.52c-.08-.25-.18-.49-.21-.74-.01-.1.14-.22.21-.34.21.36.21.72,0,1.07Z"/><path class="cls-3" d="M670.22,574.69c-.08-.25-.19-.49-.23-.75-.01-.1.14-.23.22-.34.2.36.2.73,0,1.09Z"/><path class="cls-8" d="M654.38,567.97c.21.31.23.63.05.96-16.02,9.5-31.87,19.32-48.11,28.43-30.3,16.99-59.43,35.89-89.27,53.64-25.34,15.08-50.3,30.78-75.46,46.15-5.4,3.3-11.24,4.67-17.71,4.88-10.93.34-19.38-5.37-27.88-10.53-29.88-18.13-59.95-35.92-89.5-54.61-39.55-25.01-79.6-49.23-119.44-73.79-.32-.56-.64-1.12-.97-1.68,0,0,.11-.3.11-.3l-.24-.23s-.04-.14-.04-.14c-.07-1.14-.15-2.28-.22-3.43-.07-2.79-.14-5.58-.21-8.37-.15-.42-.3-.84-.45-1.26,0,0,.25.04.25.04.18-.34.19-.69.03-1.04.17-.35.16-.7-.03-1.04.15-.38.13-.74-.07-1.09,0,0,.06,0,.07,0,.19-10.51.38-21.01.57-31.52,6.95-1.97,13.52-4.99,19.54-8.78,6.82-4.29,12.64-3.37,19.23.4,12.22,6.99,24.17,14.43,36.56,21.16,8.61,4.67,17.55,8.95,25.67,14.43,6.79,4.58,14.29,7.5,21.54,11.03,1.26.61,2.24.36,2.63-1.14,9.36,16.3,20.55,31.12,35.55,42.72,23.81,18.42,50.39,27.81,80.9,25.31,19.7-1.61,37.35-8.37,53.85-18.8,1.96,1.57,3.74.38,5.39-.51,10.38-5.59,20.74-11.22,31.06-16.91,24.09-13.28,48.17-26.58,72.21-39.94,2.95-1.64,5.48-1.87,8.69-.32,18.5,8.9,37.12,17.57,55.69,26.31Z"/><path class="cls-11" d="M654.38,567.97c-18.58-8.74-37.19-17.41-55.69-26.31-3.22-1.55-5.74-1.32-8.69.32-24.04,13.36-48.12,26.66-72.21,39.94-10.32,5.69-20.68,11.32-31.06,16.91-1.65.89-3.43,2.08-5.39.51,14.87-9.39,25.99-22.28,35.1-37.14,8.77-14.3,14.46-29.84,19.15-45.82,1.45-.77,1.79-2.06,1.69-3.56l-.26.06c2.71-2.04.97-6.37,4.7-8.2,10.78-5.3,21.36-11,32.02-16.54,8.39-4.36,16.92-8.45,25.14-13.1,16.44-9.31,32.83-18.72,50.03-26.58,3.35-1.53,5.27-3.56,5.22-7.46-.15-11.04-.11-22.08-.15-33.12.04-1.53.09-3.06.13-4.59.32.01.63.04.94.07.04,19.26.07,38.51.12,57.77,0,2.5.16,4.99.24,7.49,0,4.28-.02,8.55-.03,12.83,0,1.17,0,2.35,0,3.52,0,0-.37-.03-.37-.03-.2.54-.56,1.08-.57,1.63-.27,27.11-.64,54.21.03,81.32l-.09.09Z"/><path class="cls-14" d="M654.1,403.28c-.04,1.53-.09,3.06-.13,4.59-6.64,4.32-15.25,4.3-21.51,9.14-10.11,7.82-19.88,8.15-30.07.47-1.36-1.02-3.17-1.43-4.72-2.23-4.83-2.51-9.51-1.88-13.81,1.05-10.67,7.28-23.04,11.1-34.4,16.95-3.18,1.64-6.13,3.13-7.83,6.38l-.2-.32.25-.28c.53-1.51.47-2.95-.53-4.26-1.69-16.71-3.89-33.35-7.41-49.79,5.41-3.01,11.75-4.22,16.56-8.4,5.81-4.93,14.46-4.84,19.64-11.44.98-1.25,6.26-.8,8.75-2.67,7.39-5.53,16.6-7.03,24.44-11.63,8-4.7,16.46-8.75,25.06-12.26,2.56-1.05,3.39-4.12,7.89-3.74,6.69.56,11.79,4.27,17.89,5.47.66,3.92-.54,8.02,1.09,11.85-1.11,1.54-.94,3.32-.94,5.06-.02,15.35-.03,30.7-.04,46.05Z"/><path class="cls-12" d="M184.99,424.31c.06-8.97.11-17.94.17-26.91,1.69-1.16,3.31-.31,5.02.04,5.78,1.19,11.29,3.42,15.84,6.92,4.35,3.35,11.36.39,14.18,6.58.19.41,1.07.83,1.52.73,6.04-1.24,9.29,4.05,13.92,6.04,15.29,6.57,30.36,13.68,45.51,20.59,3.5,1.6,7.18,2.96,8.78,6.96.32,23.41,1.27,46.76,7.28,69.57-3.08.45-4.53-2.38-6.75-3.57-22.8-12.26-45.42-24.87-68.13-37.3-12-6.57-24.08-12.98-36.12-19.46-.07-2.48-.06-4.97-.22-7.44-.48-7.58,1.08-15.24-.99-22.74Z"/><path class="cls-11" d="M186.2,454.5c12.04,6.48,24.12,12.9,36.12,19.46,22.71,12.43,45.33,25.03,68.13,37.3,2.22,1.19,3.66,4.03,6.75,3.57,4.12,11.95,8.08,23.96,13.83,35.28-.39,1.5-1.37,1.76-2.63,1.14-7.25-3.52-14.74-6.45-21.54-11.03-8.13-5.48-17.07-9.76-25.67-14.43-12.39-6.73-24.34-14.16-36.56-21.16-6.59-3.77-12.41-4.69-19.23-.4-6.02,3.79-12.6,6.81-19.54,8.78-.04-5.7-.08-11.41-.13-17.12.16-13.8.31-27.6.47-41.4Z"/><path class="cls-14" d="M289.92,445.25c-1.6-3.99-5.28-5.36-8.78-6.96-15.15-6.9-30.21-14.01-45.51-20.59-4.63-1.99-7.87-7.28-13.92-6.04-.45.09-1.34-.33-1.52-.73-2.82-6.19-9.83-3.24-14.18-6.58-4.55-3.5-10.06-5.72-15.84-6.92-1.71-.35-3.33-1.21-5.02-.04-.02-14.75-.03-29.49-.05-44.24,18.42,8.27,35.27,19.41,52.92,29.07,7.81,4.27,15.63,8.53,23.56,12.58,8.73,4.46,16.42,10.76,25.73,14.24,2.08.78,4.03,1.19,6.16,1.25-.71,11.7-3.67,23.17-3.55,34.95Z"/><path class="cls-8" d="M186.2,454.5c-.16,13.8-.31,27.6-.47,41.4-1.09-2.39-.62-4.94-.62-7.42-.07-21.39-.09-42.78-.12-64.17,2.07,7.5.51,15.17.99,22.74.16,2.48.15,4.96.22,7.44Z"/><path class="cls-12" d="M654.1,403.28c0-15.35.02-30.7.04-46.05,0-1.74-.17-3.52.94-5.06-.01,17.06-.02,34.12-.03,51.18-.31-.03-.63-.06-.94-.07Z"/><path class="cls-4" d="M654.28,338.03c-.04-2.32-.62-4.7.73-6.88.13,2.33,1.13,4.76-.73,6.88Z"/><path class="cls-4" d="M655.01,327.41c-.08-.23-.19-.45-.23-.68-.01-.08.16-.19.24-.29.22.33.22.65-.02.97Z"/><path class="cls-10" d="M187.06,563.1c39.84,24.56,79.89,48.78,119.44,73.79,29.55,18.69,59.62,36.48,89.5,54.61,8.5,5.16,16.95,10.87,27.88,10.53,6.47-.2,12.31-1.58,17.71-4.88,25.16-15.37,50.12-31.08,75.46-46.15,29.83-17.75,58.97-36.65,89.27-53.64,16.24-9.11,32.09-18.93,48.11-28.43-.9,17.59-6.84,32.57-22.13,42.72-27.22,18.07-55.68,34.12-83.55,51.15-35,21.39-70.41,42.1-105.22,63.79-14.29,8.9-27.03,8.79-41.22-.07-57.39-35.83-115.1-71.13-172.62-106.75-11.43-7.08-22.21-15.01-30.25-26.14-5.7-7.9-8.47-16.97-11.44-26.01-.29-.71-.57-1.43-.86-2.15,0,0-.02-.06-.02-.06.03-.39-.06-.76-.27-1.1.07-.4.13-.81.2-1.21Z"/><path class="cls-10" d="M654.47,567.87c-.67-27.11-.3-54.21-.03-81.32,0-.55.37-1.09.57-1.63.19,7.39.39,14.78.58,22.17,0,1.15,0,2.29,0,3.44,0,1.96,0,3.93,0,5.89,0,1.14,0,2.29,0,3.43,0,4.32-.01,8.64-.02,12.96-.1.35-.09.69,0,1.03-.08,9.27-.14,18.54-.28,27.8-.03,2.09.34,4.27-.83,6.23Z"/><path class="cls-3" d="M655.38,484.96c0-1.17,0-2.35,0-3.52,3.1,1.17,1.42,2.35,0,3.52Z"/><path class="cls-3" d="M655.58,510.53c0-1.15,0-2.29,0-3.44,2.74,1.15,1.3,2.29,0,3.44Z"/><path class="cls-3" d="M655.59,519.85c0-1.14,0-2.29,0-3.43,2.74,1.14,1.32,2.29,0,3.43Z"/><path class="cls-3" d="M185.71,557.32c.07,1.14.15,2.28.22,3.43-1.06-1.08-1.14-2.22-.22-3.43Z"/><path class="cls-3" d="M187.15,565.46c.29.72.57,1.43.86,2.15-.29-.72-.57-1.43-.86-2.15Z"/><path class="cls-3" d="M185.22,544.54c.19.35.22.72.07,1.09-.16-.26-.34-.51-.45-.79-.02-.04.25-.2.39-.31Z"/><path class="cls-3" d="M185.32,546.68c.16.35.15.7-.03,1.04-.13-.25-.29-.48-.38-.75-.02-.05.27-.2.41-.3Z"/><path class="cls-3" d="M185.05,547.68c.15.42.3.84.45,1.26-.15-.42-.3-.84-.45-1.26Z"/><polygon class="cls-3" points="185.96 560.89 186.21 561.12 186.09 561.42 185.96 560.89"/><path class="cls-3" d="M186.86,564.31c.2.34.29.7.27,1.1-.14-.23-.3-.45-.4-.7-.04-.1.08-.26.13-.39Z"/><path class="cls-3" d="M655.57,533.84c-.1-.34-.11-.69,0-1.03.07.24.17.47.2.71.01.1-.12.22-.19.33Z"/><path class="cls-3" d="M296.88,393.96c5.02-16.7,9.08-33.67,16.14-49.74,10.58-24.08,21.98-47.66,40.29-67.04,14.05-14.88,29.89-27.16,50.2-32.44,23.84-6.2,43.91,2.04,62.4,16.27,13.01,10.01,22.45,22.97,30.7,36.97,15.76,26.75,27.4,55.23,36.15,84.94.21.72.66,1.38.99,2.07,3.52,16.44,5.72,33.08,7.41,49.8-.26,1.48-.31,2.93.53,4.26l-.25.28s.2.32.2.32c.22,17.23.19,34.45-1.84,51.61-.85,7.22-3.44,14.22-2.79,21.63,0,0,.26-.06.26-.06-1.88.57-1.43,2.23-1.69,3.56-4.69,15.98-10.37,31.52-19.15,45.82-9.12,14.86-20.24,27.74-35.1,37.14-16.49,10.43-34.15,17.19-53.85,18.8-30.52,2.5-57.09-6.9-80.9-25.31-15-11.6-26.18-26.42-35.55-42.72-5.75-11.31-9.71-23.32-13.83-35.28-6-22.82-6.96-46.16-7.28-69.57-.11-11.78,2.84-23.26,3.55-34.95,1.14-5.45,2.27-10.89,3.41-16.34ZM423.09,256.13c-3.63-1.33-7.26-1.42-10.89-.05-.74.18-1.48.35-2.23.53-7.43.93-14.15,3.79-20.49,7.61-32.92,19.87-49.74,51.78-64.03,85.57-.31.1-.41.31-.33.62-11.09,26.65-19.2,54.04-21.35,83-1.2,16.09-1.52,32.13,1.18,48.12-.07,5.69,1.31,11.17,2.47,16.66,7.12,33.64,20.79,63.32,48.75,85.41,46.44,36.7,114.57,25.91,146.54-23.88,16.25-25.31,24.22-53.17,25.43-83.08.29-1.9.76-3.79.85-5.7,1.19-27.35-1.41-54.35-7.45-81.04-5.22-21.81-13-42.64-23.59-62.42-4.74-8.68-9.27-17.49-14.28-26.01-5.83-9.91-12.59-19.24-21.28-26.85-11.23-9.83-23.45-17.9-39.12-18.51l-.18.04Z"/><path class="cls-13" d="M655.03,326.44c.48-17.93.46-35.86,0-53.79-2.94-3.59-7.17-5.54-11.17-7.16-16.79-6.79-32.15-16.32-48.2-24.5-22.97-11.71-45.78-23.78-68.27-36.38-23.52-13.18-48.09-24.37-71.39-37.91-27.63-23.56-46.58-3.57-58.19,3.77-14.73,9.32-29.84,18.06-44.41,27.62-6.87,4.51-15.1,7.13-20.39,13.96.55.29,1.12.5,1.7.69-.58-.19-1.15-.41-1.7-.69-3.29.02-5.88,1.83-8.55,3.4-3.18,1.86-5.18,1.44-5.37-2.67-.36-7.93-1.57-15.8-1.28-23.78.13-3.58,1.4-5.64,4.59-7.23,15.63-7.75,31.32-15.41,46.7-23.63,15.2-8.12,30.22-16.62,45.87-23.85,7.56-3.49,7.01-10.57,8.59-16.64.72-2.74-2.07-1.98-3.68-1.5-6.19,1.88-11.55,5.49-17.21,8.46-9.28,4.86-18.51,9.82-27.62,14.99-16.75,9.52-33.39,19.22-50.08,28.84-1.68.97-3.25,2.19-5.03,2.91-5.25,2.11-9.25,4.28-5.9,11.31,1.68,3.52-.18,7.23-4.06,9.21-27.5,13.99-53.56,30.4-79.52,46.98-6.48,4.14-13.34,8.5-19.99,11.29-8.24,3.45-16.08,9.01-25.47,9.76-.15.75-.45,1.51-.44,2.26.16,30.33.34,60.67.52,91,18.42,8.27,35.27,19.41,52.92,29.07,7.81,4.27,15.63,8.53,23.56,12.58,8.73,4.46,16.42,10.76,25.73,14.24,2.08.78,4.03,1.19,6.16,1.25,1.14-5.45,2.27-10.89,3.41-16.34,5.02-16.7,9.08-33.67,16.14-49.74,10.58-24.08,21.98-47.65,40.29-67.04,14.05-14.88,29.89-27.16,50.2-32.44,23.84-6.2,43.91,2.04,62.4,16.27,13.01,10.01,22.45,22.97,30.7,36.97,15.76,26.75,27.4,55.23,36.15,84.94.21.72.66,1.38.99,2.07,5.41-3.01,11.75-4.22,16.57-8.4,5.81-4.93,14.46-4.84,19.64-11.44.98-1.25,6.26-.8,8.75-2.67,7.39-5.53,16.6-7.03,24.44-11.63,8-4.7,16.46-8.75,25.06-12.26,2.56-1.05,3.39-4.12,7.89-3.74,6.69.56,11.79,4.27,17.89,5.47.1-.76.2-1.53.3-2.29-.04-2.32-.62-4.7.73-6.88,0-1.25,0-2.49,0-3.74-.08-.23-.19-.45-.23-.68-.01-.08.16-.19.24-.29ZM343.62,215.62c-2.14-1.5-4.68-1.82-7.14-2.39,2.46.57,5,.89,7.14,2.39,0,0,0,0,0,0Z"/><path class="cls-12" d="M537.02,512.88c-.65-7.41,1.94-14.41,2.79-21.63,2.03-17.17,2.05-34.38,1.84-51.61,1.7-3.25,4.65-4.75,7.83-6.38,11.37-5.85,23.73-9.67,34.4-16.95,4.3-2.93,8.97-3.56,13.81-1.05,1.55.8,3.36,1.2,4.72,2.23,10.18,7.68,19.96,7.36,30.07-.47,6.26-4.84,14.86-4.82,21.51-9.14.03,11.04,0,22.08.15,33.12.05,3.9-1.87,5.93-5.22,7.46-17.2,7.86-33.59,17.28-50.03,26.58-8.22,4.65-16.75,8.75-25.14,13.1-10.66,5.54-21.24,11.24-32.02,16.54-3.73,1.83-1.99,6.16-4.7,8.2Z"/><path class="cls-12" d="M535.59,516.38c.26-1.33-.19-3,1.69-3.56.11,1.5-.24,2.79-1.69,3.56Z"/><path class="cls-12" d="M541.7,439.04c-.85-1.34-.79-2.79-.53-4.26,1,1.32,1.06,2.75.53,4.26Z"/><path class="cls-9" d="M521.53,389.89c6.04,26.69,8.64,53.69,7.45,81.04-.08,1.91-.55,3.8-.85,5.7-3.6,2.46-5.95,6.09-8.54,9.43-10.55,13.61-21.31,26.98-32.73,39.92-10.85,12.3-23.9,22.02-35.4,33.49-5.47,5.45-11.47,10.38-17.49,15.24-2.76,2.22-5.15,6.37-9.88,3.67.02-6.17.28-12.36,0-18.52-.45-9.81.32-19.57-.9-29.47-.91-7.41,1.44-15.35.83-23.03-.49-6.27,1.8-11.24,5.03-16.14,2.12-3.23,4.27-6.46,6.2-9.81,9.57-16.62,19.32-33.1,33.27-46.6.81-.74,1.62-1.48,2.44-2.22,1.02-.52,2.2-.86,3.03-1.59,13.28-11.81,26.89-23.21,40.98-34.03,2.5-1.92,5.76-3.43,6.55-7.06Z"/><path class="cls-5" d="M424.11,578.38c4.73,2.7,7.12-1.45,9.88-3.67,6.02-4.86,12.02-9.79,17.49-15.24,11.5-11.47,24.55-21.19,35.4-33.49,11.42-12.94,22.18-26.31,32.73-39.92,2.59-3.34,4.94-6.97,8.54-9.43-1.21,29.91-9.18,57.77-25.43,83.08-31.97,49.79-100.1,60.57-146.54,23.88-27.96-22.09-41.62-51.76-48.75-85.41-1.16-5.49-2.54-10.98-2.47-16.66,1.65.1,2.83,1.05,4.03,2.08,15.72,13.44,31.81,26.45,48.46,38.72,4.05,2.99,7.4,7.52,13.05,8.07,0,0-.02,0-.02,0,.05,1.55,1.14,2.26,2.35,2.86l-.03.07c.54.58,1.07,1.16,1.61,1.75,2.11,1.92,4.22,3.84,6.33,5.76,3.42,4.82,8.45,7.96,12.77,11.79,9.97,8.84,19.37,18.42,30.62,25.76Z"/><path class="cls-9" d="M370.49,530.39c-5.65-.54-9-5.08-13.05-8.07-16.65-12.26-32.74-25.28-48.46-38.72-1.2-1.03-2.37-1.99-4.03-2.08-2.7-15.98-2.38-32.02-1.18-48.12,2.15-28.96,10.25-56.36,21.35-83,1.95,1.23,3.92,2.44,5.85,3.7,6.93,4.51,13.72,9.24,20.81,13.48,3.44,2.06,8.7,1.84,8.27,7.85-1.41,13.11-3.2,26.17-4.03,39.35-1.54,24.49-1.19,48.86,2.28,73.2,2.1,14.74,6.95,28.61,12.19,42.4Z"/><path class="cls-6" d="M423.26,256.1c15.67.61,27.89,8.68,39.12,18.51,8.69,7.61,15.46,16.94,21.28,26.85,5.01,8.52,9.54,17.33,14.28,26.01-10.17,3.47-20.44,6.72-29.42,12.91-3.05-1.25-6.22-2.26-9.11-3.8-7.49-3.99-15.04-7.73-23.52-9.15-.28-.5-.43-1.26-.85-1.47-12.69-6.2-25.52-12.04-39.09-16.09,5.78-13.57,13.36-26.23,20.02-39.36,2.43-4.8,3.32-10.39,7.29-14.41Z"/><path class="cls-6" d="M325.45,349.79c14.29-33.79,31.11-65.7,64.03-85.57,6.34-3.83,13.06-6.68,20.49-7.61.12,1.26-.52,2.2-1.26,3.13-7.67,9.56-13.53,20.27-19.09,31.08-7.4,14.4-15.9,28.42-18.62,44.8-.52.02-1.04.05-1.57.07-14.66,4.7-29.32,9.4-43.99,14.11Z"/><path class="cls-1" d="M371,335.61c2.72-16.37,11.22-30.39,18.63-44.79,5.55-10.81,11.42-21.52,19.09-31.08.74-.93,1.38-1.87,1.26-3.13.74-.17,1.48-.35,2.22-.52,3.63.02,7.26.03,10.9.05,0,0,.18-.04.18-.04-3.97,4.02-4.86,9.61-7.29,14.41-6.65,13.13-14.24,25.79-20.02,39.36-3.56,6.83-6.76,13.82-9.17,21.16-.69.88-1.37,1.75-2.06,2.63-4.77-.74-8.83,3.55-13.72,1.96Z"/><path class="cls-7" d="M325.45,349.79c14.66-4.7,29.32-9.4,43.99-14.11-3.13,13.25-6.25,26.51-9.38,39.76.43-6.01-4.84-5.79-8.27-7.85-7.09-4.24-13.88-8.97-20.81-13.48-1.93-1.26-3.9-2.46-5.85-3.7-.09-.31.02-.52.32-.63Z"/><path class="cls-6" d="M423.09,256.13c-3.63-.02-7.26-.03-10.9-.05,3.64-1.37,7.27-1.28,10.9.05Z"/><path class="cls-4" d="M384.72,333.65c-2.52,11.96-5.12,23.9-7.51,35.88-.68,3.4-.78,6.92-1.15,10.39-1.89,4.01-1.43,8.48-1.48,12.57-.2,16.62-2.75,33.17-.98,49.87,1.12,10.57.34,21.25,1.32,31.89,1.88,20.4,3.53,40.83,6.35,61.13.26,1.89,1.21,3.78-.53,5.44-2.11-1.92-4.22-3.84-6.34-5.76-.54-.58-1.07-1.16-1.6-1.74,0,0,.03-.07.03-.08-.27-1.38-1-2.37-2.35-2.86,0,0,.02,0,.02,0-5.24-13.8-10.08-27.66-12.19-42.4-3.47-24.34-3.82-48.71-2.28-73.2.83-13.18,2.62-26.24,4.03-39.35,3.13-13.25,6.25-26.51,9.38-39.76.53-.02,1.05-.05,1.57-.07,4.89,1.59,8.94-2.7,13.72-1.96Z"/><path class="cls-9" d="M370.47,530.39c1.35.48,2.08,1.48,2.35,2.86-1.21-.6-2.29-1.31-2.35-2.86Z"/><path class="cls-9" d="M372.79,533.32c.53.58,1.07,1.16,1.6,1.74-.53-.58-1.07-1.16-1.6-1.74Z"/><path class="cls-7" d="M386.78,331.02l-2.06,2.63c-2.52,11.96-5.12,23.9-7.51,35.88-.68,3.4-.78,6.92-1.15,10.39,0,0,0,0,0,0-1.89,4.01-1.43,8.48-1.48,12.57-.2,16.62-2.75,33.17-.98,49.87,1.12,10.57.34,21.25,1.32,31.89,1.88,20.4,3.53,40.83,6.35,61.13.26,1.89,1.21,3.78-.53,5.44,3.42,4.82,8.44,7.96,12.76,11.79,9.97,8.84,19.37,18.42,30.62,25.76.02-6.17.28-12.36,0-18.52-.45-9.81.32-19.57-.9-29.47-.91-7.41,1.44-15.35.83-23.03-.49-6.27,1.8-11.24,5.03-16.14,2.12-3.23,4.27-6.46,6.2-9.81,9.57-16.62,19.32-33.1,33.27-46.6.81-.74,1.62-1.48,2.44-2.22,1.02-.52,2.2-.86,3.03-1.59,13.28-11.81,26.89-23.21,40.98-34.03,2.5-1.92,5.76-3.43,6.55-7.06-5.22-21.81-13-42.64-23.59-62.42-10.17,3.47-20.44,6.72-29.42,12.91,0,0,0,0,0,0-3.05-1.25-6.22-2.26-9.11-3.8-7.49-3.99-15.04-7.73-23.52-9.15-.28-.5-.43-1.26-.85-1.47-12.69-6.2-25.52-12.04-39.09-16.09-3.56,6.83-6.76,13.82-9.17,21.16"/><path class="cls-4" d="M319.88,216.4s-54.34,26.78-80.29,43.36c-6.48,4.14-13.34,8.5-19.99,11.29-8.24,3.45-26.29,1.67-35.68,2.41-1.41-33.82,9.24-48,26.45-57.74,43.52-24.64,87.01-49.33,130.52-73.99,20.07-11.38,40.3-22.47,60.18-34.17,15.23-8.97,29.46-8.92,44.87.28,44.53,26.56,89.5,52.38,134.26,78.55,16.57,9.69,33.07,19.48,49.51,29.37,3.82,2.29,7.44,4.97,10.91,7.77,8.96,7.22,13.94,16.61,14.33,28.17.23,6.98.06,13.98.07,20.96-2.94-3.59-7.17-5.54-11.17-7.16-16.79-6.79-32.15-16.32-48.2-24.5-22.97-11.71-45.78-23.78-68.27-36.38-23.52-13.18-48.09-24.37-71.39-37.91-7.03-4.09-17.76-7.36-17.76-7.36,0,0-6.82-3.64-10.57-2.82-2.57.08-11.27,2.82-11.27,2.82,0,0-6.97,3.79-18.58,11.13-14.73,9.32-29.84,18.06-44.41,27.62-6.87,4.51-15.1,7.13-20.39,13.96-3.29.02-5.88,1.83-8.55,3.4-3.18,1.86-5.18,1.44-5.37-2.67"/></svg>