<?xml version="1.0" encoding="UTF-8" standalone="no"?>
<svg
   xmlns:dc="http://purl.org/dc/elements/1.1/"
   xmlns:cc="http://creativecommons.org/ns#"
   xmlns:rdf="http://www.w3.org/1999/02/22-rdf-syntax-ns#"
   xmlns:svg="http://www.w3.org/2000/svg"
   xmlns="http://www.w3.org/2000/svg"
   xmlns:xlink="http://www.w3.org/1999/xlink"
   version="1.1"
   id="svg2"
   xml:space="preserve"
   width="560"
   height="560"
   viewBox="0 0 560 560"><defs
     id="defs6"><clipPath
       clipPathUnits="userSpaceOnUse"
       id="clipPath20"><path
         d="M 11,411 V 258 H 175.7891 C 231.2656,258 164,411 164,411 Z"
         clip-rule="evenodd"
         id="path18" /></clipPath><clipPath
       clipPathUnits="userSpaceOnUse"
       id="clipPath30"><path
         d="M 11,180 V 20 h 157.3641 c 0,0 58.798,160 9.3742,160 C 128.3145,180 11,180 11,180 Z"
         clip-rule="evenodd"
         id="path28" /></clipPath><clipPath
       clipPathUnits="userSpaceOnUse"
       id="clipPath68"><path
         d="m 179.579,409 c 0,0 68.796,-161.1172 0,-161.1172 H 11 V 195.207 c 0,0 99.1697,0 168.579,0 69.4093,0 0,-174.207 0,-174.207 H 399 v 388 z"
         clip-rule="evenodd"
         id="path66" /></clipPath><filter
       style="color-interpolation-filters:sRGB;"
       id="filter499"><feFlood
         flood-opacity="0.501961"
         flood-color="rgb(0,0,0)"
         result="flood"
         id="feFlood489" /><feComposite
         in="flood"
         in2="SourceGraphic"
         operator="in"
         result="composite1"
         id="feComposite491" /><feGaussianBlur
         in="composite1"
         stdDeviation="8"
         result="blur"
         id="feGaussianBlur493" /><feOffset
         dx="5"
         dy="-5"
         result="offset"
         id="feOffset495" /><feComposite
         in="SourceGraphic"
         in2="offset"
         operator="over"
         result="composite2"
         id="feComposite497" /></filter></defs><g
     id="g10"
     transform="matrix(1.3333333,0,0,-1.3333333,0,560)"><g
       id="g14"><g
         id="g16"
         clip-path="url(#clipPath20)"><path
           d="M 6,416 H 202.7207 V 253 H 6 Z"
           style="fill:#a4a4a4;fill-opacity:1;fill-rule:evenodd;stroke:none"
           id="path22" /></g></g><g
       id="g24"><g
         id="g26"
         clip-path="url(#clipPath30)"><path
           d="M 6,185 H 202.5123 V 15 H 6 Z"
           style="fill:#a4a4a4;fill-opacity:1;fill-rule:evenodd;stroke:none"
           id="path32" /></g></g><g
       id="g62"
       style="filter:url(#filter499)"><g
         id="g64"
         clip-path="url(#clipPath68)"><path
           d="M 6,414 H 404 V 16 H 6 Z"
           style="fill:#d8d8d8;fill-opacity:1;fill-rule:evenodd;stroke:none"
           id="path70" /></g></g></g></svg>
