<?xml version="1.0" encoding="UTF-8" standalone="no"?>
<!DOCTYPE svg PUBLIC "-//W3C//DTD SVG 1.1//EN"
 "http://www.w3.org/Graphics/SVG/1.1/DTD/svg11.dtd">
<!-- Generated by graphviz version 2.34.0 (20130907.0228)
 -->
<!-- Title: BATAI Pages: 1 -->
<svg width="346pt" height="95pt"
 viewBox="0.00 0.00 346.00 94.80" xmlns="http://www.w3.org/2000/svg" xmlns:xlink="http://www.w3.org/1999/xlink">
<g id="graph0" class="graph" transform="scale(1 1) rotate(0) translate(4 90.8)">
<title>BATAI</title>
<polygon fill="white" stroke="white" points="-4,4 -4,-90.8 342,-90.8 342,4 -4,4"/>
<text text-anchor="middle" x="169" y="-6.8" font-family="Helvetica,sans-Serif" font-size="14.00">BATAI State Diagram</text>
<!-- pp -->
<g id="node1" class="node"><title>pp</title>
<ellipse fill="white" stroke="white" cx="127" cy="-55.8" rx="27" ry="18"/>
<text text-anchor="middle" x="127" y="-50.2" font-family="Times,serif" font-size="14.00">pp</text>
</g>
<!-- aa -->
<g id="node2" class="node"><title>aa</title>
<ellipse fill="white" stroke="white" cx="217" cy="-55.8" rx="27" ry="18"/>
<text text-anchor="middle" x="217" y="-50.2" font-family="Times,serif" font-size="14.00">aa</text>
</g>
<!-- pp&#45;&gt;aa -->
<g id="edge1" class="edge"><title>pp&#45;&gt;aa</title>
<path fill="none" stroke="black" d="M154.403,-55.8C162.393,-55.8 171.311,-55.8 179.824,-55.8"/>
<polygon fill="black" stroke="black" points="179.919,-59.3001 189.919,-55.8 179.919,-52.3001 179.919,-59.3001"/>
</g>
<!-- end -->
<g id="node4" class="node"><title>end</title>
<ellipse fill="none" stroke="black" cx="309" cy="-55.8" rx="24.9621" ry="24.9621"/>
<ellipse fill="none" stroke="black" cx="309" cy="-55.8" rx="28.9593" ry="28.9593"/>
<text text-anchor="middle" x="309" y="-50.2" font-family="Times,serif" font-size="14.00">end</text>
</g>
<!-- aa&#45;&gt;end -->
<g id="edge3" class="edge"><title>aa&#45;&gt;end</title>
<path fill="none" stroke="black" d="M244.032,-55.8C252.004,-55.8 260.948,-55.8 269.565,-55.8"/>
<polygon fill="black" stroke="black" points="269.824,-59.3001 279.824,-55.8 269.824,-52.3001 269.824,-59.3001"/>
</g>
<!-- start -->
<g id="node3" class="node"><title>start</title>
<ellipse fill="none" stroke="black" cx="32" cy="-55.8" rx="27.8055" ry="27.8055"/>
<ellipse fill="none" stroke="black" cx="32" cy="-55.8" rx="31.8262" ry="31.8262"/>
<text text-anchor="middle" x="32" y="-50.2" font-family="Times,serif" font-size="14.00">start</text>
</g>
<!-- start&#45;&gt;pp -->
<g id="edge2" class="edge"><title>start&#45;&gt;pp</title>
<path fill="none" stroke="black" d="M63.7094,-55.8C72.0598,-55.8 81.181,-55.8 89.8045,-55.8"/>
<polygon fill="black" stroke="black" points="89.991,-59.3001 99.991,-55.8 89.9909,-52.3001 89.991,-59.3001"/>
</g>
</g>
</svg>
