<?xml version="1.0" encoding="UTF-8" standalone="no"?>
<!DOCTYPE svg PUBLIC "-//W3C//DTD SVG 1.1//EN"
 "http://www.w3.org/Graphics/SVG/1.1/DTD/svg11.dtd">
<!-- Generated by graphviz version 2.40.1 (20161225.0304)
 -->
<!-- Title: G Pages: 1 ORIGINAL: width="379pt" height="584pt"-->
<svg width="190pt" height="292pt"
 viewBox="0.00 0.00 190.0 292.00" xmlns="http://www.w3.org/2000/svg" xmlns:xlink="http://www.w3.org/1999/xlink">
<g id="graph0" class="graph" transform="scale(0.5 0.5) rotate(0) translate(4 580)">
<title>G</title>
<polygon fill="#ffffff" stroke="transparent" points="-4,4 -4,-580 375.2019,-580 375.2019,4 -4,4"/>
<!-- 0 -->
<g id="node1" class="node">
<title>0</title>
<polygon fill="#00ff00" stroke="#000000" points="134.4077,-576 67.4541,-576 67.4541,-540 134.4077,-540 134.4077,-576"/>
<text text-anchor="middle" x="100.9309" y="-553.8" font-family="Helvetica,sans-Serif" font-size="14.00" fill="#000000">[0,0]#=1</text>
</g>
<!-- 19 -->
<g id="node2" class="node">
<title>19</title>
<polygon fill="none" stroke="#000000" points="141.9742,-468 59.8876,-468 59.8876,-432 141.9742,-432 141.9742,-468"/>
<text text-anchor="middle" x="100.9309" y="-445.8" font-family="Helvetica,sans-Serif" font-size="14.00" fill="#000000">[19,20]#=2</text>
</g>
<!-- 0&#45;&gt;19 -->
<g id="edge1" class="edge">
<title>0&#45;&gt;19</title>
<path fill="none" stroke="#000000" d="M100.9309,-539.6793C100.9309,-522.821 100.9309,-497.5651 100.9309,-478.147"/>
<polygon fill="#000000" stroke="#000000" points="104.431,-478.0501 100.9309,-468.0502 97.431,-478.0502 104.431,-478.0501"/>
</g>
<!-- 12 -->
<g id="node3" class="node">
<title>12</title>
<polygon fill="none" stroke="#000000" points="209.9742,-360 127.8876,-360 127.8876,-324 209.9742,-324 209.9742,-360"/>
<text text-anchor="middle" x="168.9309" y="-337.8" font-family="Helvetica,sans-Serif" font-size="14.00" fill="#000000">[12,14]#=3</text>
</g>
<!-- 19&#45;&gt;12 -->
<g id="edge2" class="edge">
<title>19&#45;&gt;12</title>
<path fill="none" stroke="#000000" d="M112.4662,-431.6793C123.3755,-414.3527 139.87,-388.1555 152.2189,-368.5427"/>
<polygon fill="#000000" stroke="#000000" points="155.1996,-370.3774 157.566,-360.0502 149.276,-366.6476 155.1996,-370.3774"/>
</g>
<!-- 23 -->
<g id="node4" class="node">
<title>23</title>
<polygon fill="none" stroke="#000000" points="83.9742,-144 1.8876,-144 1.8876,-108 83.9742,-108 83.9742,-144"/>
<text text-anchor="middle" x="42.9309" y="-121.8" font-family="Helvetica,sans-Serif" font-size="14.00" fill="#000000">[23,24]#=2</text>
</g>
<!-- 19&#45;&gt;23 -->
<g id="edge3" class="edge">
<title>19&#45;&gt;23</title>
<path fill="none" stroke="#000000" d="M97.6464,-431.652C87.9761,-377.6318 59.5606,-218.8969 47.9552,-154.0667"/>
<polygon fill="#000000" stroke="#000000" points="51.3868,-153.3735 46.1794,-144.1467 44.4964,-154.607 51.3868,-153.3735"/>
</g>
<!-- 5 -->
<g id="node5" class="node">
<title>5</title>
<polygon fill="none" stroke="#000000" points="202.4077,-252 135.4541,-252 135.4541,-216 202.4077,-216 202.4077,-252"/>
<text text-anchor="middle" x="168.9309" y="-229.8" font-family="Helvetica,sans-Serif" font-size="14.00" fill="#000000">[5,7]#=3</text>
</g>
<!-- 12&#45;&gt;5 -->
<g id="edge4" class="edge">
<title>12&#45;&gt;5</title>
<path fill="none" stroke="#000000" d="M168.9309,-323.6793C168.9309,-306.821 168.9309,-281.5651 168.9309,-262.147"/>
<polygon fill="#000000" stroke="#000000" points="172.431,-262.0501 168.9309,-252.0502 165.431,-262.0502 172.431,-262.0501"/>
</g>
<!-- 17 -->
<g id="node6" class="node">
<title>17</title>
<polygon fill="none" stroke="#000000" points="370.9742,-144 288.8876,-144 288.8876,-108 370.9742,-108 370.9742,-144"/>
<text text-anchor="middle" x="329.9309" y="-121.8" font-family="Helvetica,sans-Serif" font-size="14.00" fill="#000000">[17,18]#=2</text>
</g>
<!-- 12&#45;&gt;17 -->
<g id="edge5" class="edge">
<title>12&#45;&gt;17</title>
<path fill="none" stroke="#000000" d="M182.3808,-323.9555C210.7925,-285.8379 277.0297,-196.973 310.228,-152.4337"/>
<polygon fill="#000000" stroke="#000000" points="313.2361,-154.2546 316.4061,-144.1451 307.6236,-150.0712 313.2361,-154.2546"/>
</g>
<!-- &#45;2147483647 -->
<g id="node7" class="node">
<title>&#45;2147483647</title>
<polygon fill="#ff0000" stroke="#000000" points="181.7928,-10.5442 181.7928,-25.4558 128.5671,-36 53.2947,-36 .069,-25.4558 .069,-10.5442 53.2947,0 128.5671,0 181.7928,-10.5442"/>
<text text-anchor="middle" x="90.9309" y="-13.8" font-family="Helvetica,sans-Serif" font-size="14.00" fill="#000000">Abnormal Return</text>
</g>
<!-- 23&#45;&gt;&#45;2147483647 -->
<g id="edge6" class="edge">
<title>23&#45;&gt;&#45;2147483647</title>
<path fill="none" stroke="#000000" d="M51.0735,-107.6793C58.6701,-90.5868 70.1034,-64.8619 78.7792,-45.3413"/>
<polygon fill="#000000" stroke="#000000" points="82.0455,-46.6098 82.9086,-36.0502 75.6488,-43.7668 82.0455,-46.6098"/>
</g>
<!-- &#45;2147483648 -->
<g id="node8" class="node">
<title>&#45;2147483648</title>
<ellipse fill="#00ff00" stroke="#000000" cx="273.9309" cy="-18" rx="73.608" ry="18"/>
<text text-anchor="middle" x="273.9309" y="-13.8" font-family="Helvetica,sans-Serif" font-size="14.00" fill="#000000">Normal Return</text>
</g>
<!-- 23&#45;&gt;&#45;2147483648 -->
<g id="edge7" class="edge">
<title>23&#45;&gt;&#45;2147483648</title>
<path fill="none" stroke="#000000" d="M81.5951,-107.9232C122.7574,-88.6785 187.7477,-58.2934 230.6082,-38.2548"/>
<polygon fill="#000000" stroke="#000000" points="232.0909,-41.4253 239.6673,-34.0193 229.1261,-35.0841 232.0909,-41.4253"/>
</g>
<!-- 3 -->
<g id="node9" class="node">
<title>3</title>
<polygon fill="none" stroke="#000000" points="169.4077,-144 102.4541,-144 102.4541,-108 169.4077,-108 169.4077,-144"/>
<text text-anchor="middle" x="135.9309" y="-121.8" font-family="Helvetica,sans-Serif" font-size="14.00" fill="#000000">[3,4]#=2</text>
</g>
<!-- 5&#45;&gt;3 -->
<g id="edge8" class="edge">
<title>5&#45;&gt;3</title>
<path fill="none" stroke="#000000" d="M163.3329,-215.6793C158.1579,-198.7429 150.3932,-173.3311 144.4491,-153.8777"/>
<polygon fill="#000000" stroke="#000000" points="147.7157,-152.5909 141.4462,-144.0502 141.0213,-154.6365 147.7157,-152.5909"/>
</g>
<!-- 10 -->
<g id="node10" class="node">
<title>10</title>
<polygon fill="none" stroke="#000000" points="269.9742,-144 187.8876,-144 187.8876,-108 269.9742,-108 269.9742,-144"/>
<text text-anchor="middle" x="228.9309" y="-121.8" font-family="Helvetica,sans-Serif" font-size="14.00" fill="#000000">[10,11]#=2</text>
</g>
<!-- 5&#45;&gt;10 -->
<g id="edge9" class="edge">
<title>5&#45;&gt;10</title>
<path fill="none" stroke="#000000" d="M179.1091,-215.6793C188.6916,-198.4307 203.1579,-172.3914 214.0375,-152.8081"/>
<polygon fill="#000000" stroke="#000000" points="217.1061,-154.4915 218.903,-144.0502 210.987,-151.092 217.1061,-154.4915"/>
</g>
<!-- 17&#45;&gt;&#45;2147483647 -->
<g id="edge12" class="edge">
<title>17&#45;&gt;&#45;2147483647</title>
<path fill="none" stroke="#000000" d="M289.9277,-107.9232C248.4912,-89.1988 183.7164,-59.9282 139.3997,-39.9022"/>
<polygon fill="#000000" stroke="#000000" points="140.8234,-36.7048 130.2693,-35.7763 137.9408,-43.0838 140.8234,-36.7048"/>
</g>
<!-- 17&#45;&gt;&#45;2147483648 -->
<g id="edge13" class="edge">
<title>17&#45;&gt;&#45;2147483648</title>
<path fill="none" stroke="#000000" d="M320.4313,-107.6793C311.5281,-90.5088 298.1078,-64.6268 287.9695,-45.0743"/>
<polygon fill="#000000" stroke="#000000" points="291.0006,-43.3166 283.2903,-36.0502 284.7863,-46.5388 291.0006,-43.3166"/>
</g>
<!-- 3&#45;&gt;&#45;2147483647 -->
<g id="edge14" class="edge">
<title>3&#45;&gt;&#45;2147483647</title>
<path fill="none" stroke="#000000" d="M128.2973,-107.6793C121.1754,-90.5868 110.4567,-64.8619 102.3231,-45.3413"/>
<polygon fill="#000000" stroke="#000000" points="105.5288,-43.9348 98.4518,-36.0502 99.0673,-46.6271 105.5288,-43.9348"/>
</g>
<!-- 3&#45;&gt;&#45;2147483648 -->
<g id="edge15" class="edge">
<title>3&#45;&gt;&#45;2147483648</title>
<path fill="none" stroke="#000000" d="M159.029,-107.9232C182.2923,-89.7172 218.2954,-61.5408 243.7928,-41.5863"/>
<polygon fill="#000000" stroke="#000000" points="245.9546,-44.3389 251.6726,-35.4195 241.6404,-38.8264 245.9546,-44.3389"/>
</g>
<!-- 10&#45;&gt;&#45;2147483647 -->
<g id="edge10" class="edge">
<title>10&#45;&gt;&#45;2147483647</title>
<path fill="none" stroke="#000000" d="M205.8328,-107.9232C182.8465,-89.9339 147.4218,-62.2103 121.984,-42.3024"/>
<polygon fill="#000000" stroke="#000000" points="124.1365,-39.5426 114.1044,-36.1357 119.8223,-45.0551 124.1365,-39.5426"/>
</g>
<!-- 10&#45;&gt;&#45;2147483648 -->
<g id="edge11" class="edge">
<title>10&#45;&gt;&#45;2147483648</title>
<path fill="none" stroke="#000000" d="M236.5646,-107.6793C243.6864,-90.5868 254.4051,-64.8619 262.5387,-45.3413"/>
<polygon fill="#000000" stroke="#000000" points="265.7946,-46.6271 266.41,-36.0502 259.333,-43.9348 265.7946,-46.6271"/>
</g>
</g>
</svg>
